<svg width="2306" height="824" viewBox="0 0 2306 824" fill="none" xmlns="http://www.w3.org/2000/svg">
<path d="M60.5847 76.4702C141.475 117.032 213.142 173.824 271.117 243.304C356.561 346.979 351.914 410.494 433.982 469.72C513.746 527.238 623.223 543.087 712.043 521.359C833.239 491.687 838.72 410.931 994.077 283.026C1085.44 207.871 1256.77 66.7779 1458.84 80.4424C1560.93 87.354 1662.42 133.193 1756.76 175.776C1872.39 227.971 1889 254.783 1951.4 267.137C2025.53 281.834 2140.13 271.387 2304.94 140.026" stroke="#B195FF" stroke-opacity="0.5" stroke-miterlimit="10"/>
<path d="M58.3208 91.3273C131.211 126.962 196.921 175.705 252.169 235.122C257.453 240.881 262.736 246.8 268.059 252.878C354.377 353.295 350.961 413.951 431.996 471.707C467.319 496.981 507.314 514.979 549.656 524.657C579.984 531.561 611.09 534.446 642.171 533.237C665.413 532.32 688.479 528.789 710.931 522.711C735.951 516.28 759.734 505.757 781.321 491.568C821.044 465.352 848.85 429.959 891.632 385.55C923.858 352.127 958.919 321.559 996.421 294.189C1016.28 279.491 1039.48 261.775 1066.29 243.622C1138.03 194.923 1229.83 142.013 1339.99 123.741C1377.36 117.363 1415.34 115.231 1453.2 117.385C1459 117.703 1464.76 118.179 1470.44 118.736C1526.68 124.178 1580.27 138.597 1635.01 157.743C1675.96 171.884 1714.69 189.521 1753.11 206.085C1769.19 213.155 1783.57 219.59 1796.56 225.628C1875.02 262.212 1895.39 281.835 1948.98 290.415C1989.7 296.929 2042.37 295.778 2109.22 272.58C2164.04 253.593 2228.95 219.392 2304.94 162.827" stroke="#B195FF" stroke-opacity="0.5" stroke-miterlimit="10"/>
<path d="M56.2151 106.263C128.35 140.551 193.656 187.658 248.952 245.291C254.248 250.852 259.544 256.545 264.841 262.371C352.232 359.571 350.126 417.288 430.049 473.693C465.456 499.297 505.579 517.643 548.106 527.676C578.614 534.625 609.923 537.404 641.177 535.938C664.455 534.751 687.503 530.75 709.819 524.021C734.714 516.826 758.368 505.883 779.97 491.568C821.282 464.557 850.597 430.317 892.903 388.847C925.28 357.371 960.746 329.238 998.765 304.874C1018.63 291.845 1041.31 275.877 1067.84 260.067C1138.55 217.922 1224.75 173.711 1333.79 159.292C1371.46 154.102 1409.53 152.4 1447.52 154.207C1453.4 154.525 1459.19 154.922 1464.92 155.439C1522.12 160.444 1574.35 172.797 1630.2 189.838C1672.27 202.708 1710.64 220.027 1749.37 236.353C1765.46 243.106 1780 249.263 1793.31 255.022C1872 289.223 1893.09 307.257 1946.48 313.613C1987.15 318.459 2039.43 315.797 2106.64 292.322C2161.54 273.096 2227.28 239.531 2304.94 185.707" stroke="#B195FF" stroke-opacity="0.5" stroke-miterlimit="10"/>
<path d="M53.7124 120.96C125.258 153.95 190.297 199.519 245.734 255.499C251.017 260.901 256.34 266.383 261.623 271.984C350.166 365.927 349.173 420.783 428.023 475.68C465.363 501.658 502.146 520.367 546.438 530.735C577.15 537.741 608.691 540.415 640.144 538.679C663.466 537.213 686.499 532.726 708.667 525.332C733.45 517.378 757.007 506.015 778.659 491.568C821.48 463.763 852.266 430.754 894.134 392.263C926.692 362.717 962.594 337.081 1001.11 315.877C1021.17 304.516 1043.17 290.296 1069.39 276.83C1139.42 240.842 1219.66 205.608 1327.59 194.963C1365.56 190.975 1403.77 189.714 1441.92 191.189C1447.83 191.467 1453.83 191.824 1459.39 192.301C1515.52 196.898 1571.07 206.888 1625.28 222.133C1668.46 233.692 1706.51 250.852 1745.72 266.741C1761.81 273.255 1776.46 279.094 1790.13 284.576C1869.02 316.354 1890.87 332.719 1944.02 336.97C1984.69 340.227 2036.69 335.937 2104.14 312.183C2159.16 292.957 2225.61 259.63 2304.94 208.349" stroke="#B195FF" stroke-opacity="0.5" stroke-miterlimit="10"/>
<path d="M51.4087 135.776C122.263 167.483 186.959 211.456 242.516 265.668C247.8 270.911 253.162 276.155 258.406 281.557C347.902 372.402 348.299 424.041 426.037 477.705C464.211 503.962 499.763 523.187 544.849 533.793C575.737 540.868 607.489 543.424 639.112 541.38C662.54 539.681 685.617 534.721 707.674 526.643C732.291 517.995 755.725 506.291 777.428 491.807C821.759 463.167 854.212 431.508 895.485 395.639C924.602 370.376 959.042 348.29 1003.57 326.84C1023.79 317.069 1045.32 304.556 1071.1 293.474C1140.85 263.483 1214.74 237.465 1321.36 230.593C1359.57 227.775 1397.9 226.94 1436.2 228.091C1442.19 228.329 1448.11 228.647 1453.79 229.044C1510.02 232.731 1565.83 241.182 1620.63 254.308C1665 264.556 1702.5 281.597 1742.1 296.929C1757.99 303.206 1773.05 308.846 1787.03 313.97C1866.08 343.524 1888.68 358.022 1941.67 360.128C1982.35 361.756 2033.99 355.917 2101.72 331.925C2156.73 312.421 2223.98 279.69 2304.94 231.03" stroke="#B195FF" stroke-opacity="0.5" stroke-miterlimit="10"/>
<path d="M49.1445 150.593C119.291 181.039 183.628 223.414 239.299 275.837C244.582 280.882 249.945 285.887 255.188 291.051C345.757 378.439 347.386 427.496 423.972 479.652C462.98 506.226 497.3 525.968 543.141 536.812C574.235 543.948 606.223 546.385 638.039 544.041C661.473 542.097 684.486 536.675 706.323 527.954C730.794 518.575 754.127 506.462 775.879 491.846C821.759 462.452 855.921 432.263 896.518 399.016C926.508 374.547 961.703 355.321 1005.72 337.764C1026.17 329.581 1047.23 318.856 1072.45 309.958C1142.48 285.728 1209.58 269.164 1315.08 265.986C1351.74 264.874 1392.3 263.483 1430.48 264.794C1436.55 264.993 1442.39 265.271 1448.19 265.589C1504.43 268.362 1560.4 275.266 1615.62 286.244C1661.11 295.182 1698.33 312.103 1738.37 327.118C1754.46 333.156 1769.43 338.36 1783.77 343.285C1862.98 370.813 1886.46 384.318 1939.09 383.484C1979.77 382.849 2031.09 376.056 2099.05 351.706C2154.11 331.845 2222.2 299.79 2304.78 253.791" stroke="#B195FF" stroke-opacity="0.5" stroke-miterlimit="10"/>
<path d="M46.8406 165.372C116.292 194.587 180.281 235.378 236.081 286.008C241.365 290.854 246.767 295.66 251.971 300.586C343.652 384.797 346.512 430.835 421.946 481.64C461.669 508.452 494.838 528.75 541.512 539.873C572.752 547.025 604.905 549.343 636.848 546.745C660.358 544.529 683.374 538.631 705.052 529.267C729.323 519.117 752.54 506.61 774.369 491.928C821.759 461.699 857.788 432.821 897.511 402.354C928.415 378.521 964.404 362.394 1007.82 348.69C1028.6 342.096 1051.2 338.282 1073.76 326.803C1146.97 323.744 1204.57 295.025 1308.6 301.778C1345.35 304.201 1386.54 300.824 1424.56 301.778C1430.71 301.976 1436.67 302.175 1442.39 302.453C1503.65 305.353 1550.52 308.729 1610.58 318.342C1657.17 325.929 1694 342.771 1734.48 357.309C1750.37 363.109 1765.66 368.034 1780.36 372.682C1859.6 397.786 1883.91 408.432 1936.47 406.446C1977.18 404.817 2028.19 395.84 2096.39 371.292C2151.53 351.43 2220.33 319.653 2304.62 276.316" stroke="#B195FF" stroke-opacity="0.5" stroke-miterlimit="10"/>
<path d="M44.5364 180.188C113.285 208.171 176.923 247.351 232.864 296.137C238.186 300.824 243.589 305.392 248.753 310.08C341.745 391.034 345.796 434.132 420.078 483.626C460.795 510.717 492.573 531.531 540.002 542.931C571.513 550.173 603.975 552.359 636.172 549.406C662.35 547.221 683.84 539.356 704.257 530.538C728.348 519.637 751.481 506.735 773.415 491.968C822.314 460.945 860.369 433.576 899.179 405.691C930.957 382.771 967.9 369.544 1010.4 359.574C1031.62 354.608 1053.7 353.456 1075.59 343.446C1148.8 349.087 1199.64 333.317 1302.65 337.329C1339.59 338.799 1381.26 337.925 1419.15 338.759C1425.35 338.759 1431.39 339.037 1437.07 339.236C1499.35 341.579 1544.88 342.771 1606.01 350.755C1653.68 357.031 1690.14 373.754 1731.06 387.856C1746.95 393.417 1762.36 398.025 1777.42 402.394C1856.86 425.354 1881.93 434.172 1934.28 429.922C1975 426.704 2025.65 416.178 2094.13 391.351C2149.3 371.49 2218.9 340.03 2304.86 299.355" stroke="#B195FF" stroke-opacity="0.5" stroke-miterlimit="10"/>
<path d="M42.2722 194.964C110.287 221.758 173.552 259.311 229.646 306.186C234.969 310.714 240.411 315.084 245.774 319.493C339.719 397.189 345.081 437.309 418.092 485.452C459.643 512.821 490.19 534.191 538.414 545.79C570.075 553.113 602.722 555.206 635.06 551.987C661.595 549.564 682.728 541.063 703.026 531.729C728.091 520.209 748.708 506.704 771.946 492.006C822.394 460.229 868.036 441.122 900.331 409.027C936.916 393.416 971.117 363.624 1012.79 370.496C1034.48 374.071 1056.08 368.589 1077.22 360.089C1150.47 374.389 1194.84 365.372 1296.53 372.919C1333.63 375.66 1375.98 375.024 1413.55 375.62C1419.87 375.62 1425.91 375.62 1431.63 375.978C1494.87 377.765 1539.08 376.653 1601.24 382.929C1650.14 387.815 1686.13 404.459 1727.44 418.123C1743.33 423.446 1758.91 427.776 1774.28 431.827C1853.72 452.681 1879.78 459.394 1931.94 453.158C1972.7 448.272 2023.02 436.197 2091.71 411.092C2146.96 390.993 2217.15 360.089 2304.94 322.075" stroke="#B195FF" stroke-opacity="0.5" stroke-miterlimit="10"/>
<path d="M39.9685 209.739C107.288 235.4 170.197 271.397 226.429 316.433C231.752 320.763 237.194 324.735 242.596 329.065C337.931 403.504 344.168 440.645 416.106 487.477C458.531 515.084 487.807 537.011 536.785 548.888C568.647 556.244 601.514 558.217 634.027 554.727C660.92 552.065 681.695 542.81 701.914 533.078C726.503 521.161 746.881 507.02 770.595 492.045C822.553 459.393 870.578 442.551 901.681 412.323C939.538 398.42 975.884 370.535 1015.25 381.379C1036.78 387.298 1058.51 383.762 1078.81 376.731C1152.1 399.691 1190.03 397.506 1290.37 408.509C1327.63 412.481 1370.29 412.164 1407.95 412.481H1426.11C1490.38 413.673 1533.36 410.376 1596.48 414.865C1646.53 418.4 1682.08 435.004 1723.83 448.192C1739.72 453.276 1755.41 457.288 1771.14 461.022C1850.59 479.85 1877.6 484.498 1929.56 476.196C1970.31 469.642 2020.32 456.017 2089.24 430.674C2144.54 410.376 2215.68 379.989 2304.98 344.596" stroke="#B195FF" stroke-opacity="0.5" stroke-miterlimit="10"/>
<path d="M37.6646 224.477C104.208 249.047 166.697 283.444 223.052 326.524C228.415 330.496 233.857 334.468 239.259 338.44C335.627 409.583 343.215 443.744 414.041 489.385C457.339 517.19 485.542 539.713 535.117 551.828C567.156 559.279 600.241 561.147 632.915 557.35C660.205 554.45 680.583 544.678 700.683 534.311C724.795 521.758 744.974 507.26 769.165 492.046C822.672 458.6 873.041 443.943 902.714 415.621C941.881 403.386 978.188 399.017 1017.39 392.224C1039.88 396.514 1060.61 398.858 1080.24 393.336C1153.53 425.114 1184.95 429.643 1284.02 443.982C1321.44 449.424 1364.65 449.702 1402.15 449.265C1408.59 449.265 1414.74 449.265 1420.43 449.265C1485.73 448.431 1527.28 444.3 1591.51 447.081C1642.76 449.265 1677.83 465.79 1720.06 478.541C1735.95 483.347 1751.84 487.121 1767.72 490.457C1847.17 507.26 1874.98 509.762 1926.86 499.395C1967.65 491.212 2017.3 476.038 2086.54 450.417C2141.88 429.96 2213.66 400.05 2304.74 367.279" stroke="#B195FF" stroke-opacity="0.5" stroke-miterlimit="10"/>
<path d="M35.4004 239.253C101.288 262.718 163.466 295.519 220.033 336.652C225.356 340.624 230.838 344.318 236.24 348.052C333.88 415.858 342.579 447.08 412.134 491.33C456.306 519.453 483.04 542.492 533.568 554.886C565.882 562.424 599.279 564.159 632.2 560.01C660.006 556.872 680.066 546.504 699.729 535.62C723.563 522.552 743.425 507.577 768.013 491.926C822.99 457.685 875.782 445.213 904.105 418.797C944.543 408.271 981.406 406.881 1019.9 402.908C1042.66 409.264 1063.08 413.792 1081.98 409.741C1155.27 450.059 1180.22 461.658 1277.98 479.334C1315.56 486.127 1359.29 486.603 1396.67 485.928C1403.19 485.928 1409.34 485.928 1415.06 485.928C1481.32 484.458 1521.6 477.983 1586.86 479.135C1639.22 479.97 1673.9 496.454 1716.56 508.729C1732.45 513.336 1748.34 516.673 1764.82 519.89C1844.27 534.747 1873.19 535.064 1924.71 522.631C1965.51 512.78 2014.84 496.097 2084.32 470.198C2139.69 449.582 2212.42 420.148 2305.02 390.038" stroke="#B195FF" stroke-opacity="0.5" stroke-miterlimit="10"/>
<path d="M33.0962 253.991C98.2761 276.41 160.087 307.629 216.815 346.782C222.178 350.754 227.66 354.012 233.062 357.547C332.012 421.976 341.824 450.258 410.148 493.278C455.194 521.6 480.656 545.195 531.979 557.866C564.411 565.452 597.953 567.081 630.968 562.672C658.775 559.256 678.954 548.293 698.498 536.853C721.696 523.268 741.399 507.816 766.583 492.126C823.109 457.051 878.245 446.803 905.256 422.254C947.005 413.396 984.266 414.747 1022.16 414.032C1045.16 422.413 1065.3 429.166 1083.45 426.584C1156.78 475.601 1175.21 494.112 1271.7 515.125C1309.44 523.308 1353.69 523.387 1390.87 523.069C1397.47 523.069 1403.66 523.069 1409.38 523.069C1476.67 520.964 1515.64 513.973 1581.94 511.709C1635.41 509.882 1669.69 527.598 1712.79 539.514C1728.83 543.841 1745.1 547.289 1761.53 549.842C1840.97 562.792 1870.85 560.885 1922.17 546.386C1963 534.867 2011.98 516.674 2081.7 490.497C2137.31 469.722 2210.64 440.725 2304.9 413.277" stroke="#B195FF" stroke-opacity="0.5" stroke-miterlimit="10"/>
<path d="M30.7917 260.227C95.2725 281.691 156.715 311.383 213.597 348.569C218.96 352.144 224.482 355.402 229.924 358.699C330.145 419.752 341.148 445.094 408.161 486.842C454.081 515.442 478.272 539.593 530.349 552.503C562.979 560.165 596.749 561.687 629.935 556.992C658.297 553.298 678.04 541.778 697.464 529.782C720.067 515.403 739.452 499.514 765.232 483.625C823.267 447.875 880.826 439.652 906.487 417.05C949.507 409.861 987.205 414.071 1024.5 416.375C1047.74 426.822 1067.56 435.76 1085 434.687C1158.37 492.364 1170.33 518.104 1265.46 541.937C1303.4 551.51 1348.17 551.709 1385.27 551.113L1403.86 550.755C1472.18 549.564 1509.8 537.25 1577.13 534.867C1631.83 532.88 1665.6 549.365 1709.13 560.686C1725.36 564.79 1741.8 567.959 1758.39 570.18C1837.64 581.222 1868.66 577.012 1919.74 560.487C1960.62 547.3 2009.28 527.597 2079.23 501.142C2134.84 480.209 2209.01 451.688 2304.94 426.902" stroke="#B195FF" stroke-opacity="0.5" stroke-miterlimit="10"/>
<path d="M28.4089 262.731C92.1675 283.104 153.228 311.113 210.261 346.148C215.664 349.564 221.185 352.583 226.627 355.641C328.318 413.397 340.275 435.96 406.176 476.317C453.009 505.116 475.89 529.863 528.761 543.051C561.6 550.724 595.599 552.072 628.943 547.023C657.623 543.051 677.127 531.134 696.273 518.423C718.479 503.845 737.744 487.4 763.803 471.233C823.387 434.569 883.29 428.651 907.64 407.955C951.971 402.434 991.495 403.308 1026.81 414.867C1052.11 423.169 1069.83 438.7 1086.39 438.7C1159.76 505.037 1165.2 538.006 1259.07 565.057C1297.12 576.1 1342.49 576.378 1379.39 575.544C1386.14 575.544 1392.42 575.226 1398.1 575.067C1467.46 573.24 1503.72 558.662 1572.13 554.53C1627.94 551.154 1661.31 567.639 1705.28 578.364C1721.66 582.295 1738.27 585.187 1755.01 587.023C1834.22 596.239 1866.24 589.685 1917.12 571.134C1958 556.239 2006.34 535.027 2076.53 508.334C2132.14 487.241 2207.14 459.197 2304.74 436.834" stroke="#B195FF" stroke-opacity="0.5" stroke-miterlimit="10"/>
<path d="M26.2244 265.153C89.2867 284.561 149.978 310.969 207.163 343.883C212.605 347.1 218.166 349.881 223.569 352.741C326.531 406.922 339.56 426.465 404.19 465.79C451.857 494.788 473.467 520.13 527.331 533.556C560.341 541.458 594.58 542.808 628.109 537.529C657.186 533.278 676.412 520.647 695.32 507.578C717.088 492.523 736.116 475.522 762.849 459.117C823.904 421.659 886.19 417.965 909.269 399.136C954.831 395.164 995.15 399.573 1029.47 413.635C1055.25 424.201 1072.45 441.441 1088.42 443.387C1161.79 518.422 1160.72 558.581 1253.35 588.691C1291.56 601.203 1337.36 601.521 1374.23 600.608L1393.06 599.972C1463.41 597.549 1498.36 580.667 1567.84 574.868C1624.84 570.061 1657.73 586.784 1702.18 596.913C1718.72 600.706 1735.49 603.36 1752.39 604.858C1831.52 612.286 1864.57 603.348 1915.26 582.772C1956.13 566.208 2004.12 543.487 2074.59 516.516C2149.18 486.839 2226.27 463.868 2304.94 447.876" stroke="#B195FF" stroke-opacity="0.5" stroke-miterlimit="10"/>
<path d="M23.9202 265.946C86.2994 284.483 146.621 309.346 203.945 340.147C209.427 343.166 214.988 345.748 220.391 348.37C324.743 399.095 338.805 415.898 402.203 453.872C450.824 483.068 471.083 509.007 525.543 522.711C558.762 530.647 593.239 531.809 626.917 526.127C656.312 521.598 675.299 508.411 694.009 494.786C715.301 479.255 734.09 461.737 761.22 445.093C823.824 406.841 888.334 405.371 910.222 388.41C957.095 386.265 998.05 393.971 1031.54 410.456C1057.75 423.365 1074.48 442.591 1089.69 445.967C1163.1 529.662 1155.47 577.051 1246.84 610.219C1285.21 624.201 1331.56 624.519 1368.27 623.287C1375.14 623.049 1381.54 622.731 1387.22 622.493C1458.72 619.434 1492.2 600.328 1562.67 592.82C1620.79 586.624 1653.28 603.188 1698.17 612.999C1714.87 616.566 1731.81 618.903 1748.86 619.99C1827.94 625.671 1861.99 614.27 1912.48 591.708C1953.35 573.436 2001.02 549.245 2071.73 521.956C2146.98 492.119 2225.14 470.219 2304.94 456.613" stroke="#B195FF" stroke-opacity="0.5" stroke-miterlimit="10"/>
<path d="M21.6162 263.684C83.3242 281.334 143.28 304.616 200.728 333.237C206.209 336.058 211.81 338.441 217.213 340.864C322.995 388.014 338.249 401.838 400.217 438.779C449.752 468.174 468.7 494.748 523.954 508.651C557.357 516.678 592.056 517.733 625.884 511.749C655.637 506.903 674.386 493.199 692.857 479.018C713.712 463.129 732.262 444.976 759.87 428.094C823.983 389.047 890.956 389.722 911.453 374.707C959.598 374.231 1001.11 385.432 1033.88 404.34C1060.41 419.673 1076.78 440.726 1091.28 445.572C1164.69 537.966 1150.47 592.544 1240.64 628.731C1279.09 644.223 1326.04 644.62 1362.63 643.11C1369.54 642.832 1375.98 642.475 1381.66 642.197C1454.07 638.542 1486.25 617.092 1557.75 607.916C1617.01 600.29 1649.11 616.894 1694.36 626.228C1711.24 629.585 1728.36 631.643 1745.56 632.385C1824.61 636.358 1859.6 622.455 1909.89 597.906C1950.77 578.045 1998.16 552.226 2069.1 524.698C2144.9 494.559 2224.04 473.609 2304.82 462.295" stroke="#B195FF" stroke-opacity="0.5" stroke-miterlimit="10"/>
<path d="M19.3521 261.418C80.384 278.253 139.962 299.972 197.51 326.364C203.032 328.985 208.633 331.091 214.035 333.315C321.287 377.01 337.176 387.933 398.231 423.683C448.639 453.237 466.316 480.446 522.326 494.627C555.924 502.772 590.866 503.706 624.851 497.368C654.961 492.164 673.472 478.023 691.745 463.247C712.162 446.762 730.435 428.212 758.519 411.091C824.182 371.369 893.578 374.07 912.685 360.962C956.536 361.483 999.347 374.386 1036.18 398.182C1063 415.977 1079.08 438.817 1092.83 445.173C1166.28 546.226 1145.42 608.034 1234.44 647.24C1272.97 664.281 1320.52 664.599 1356.95 662.93C1363.98 662.612 1370.41 662.215 1376.13 661.858C1449.5 657.488 1480.49 634.052 1553.02 623.009C1613.36 613.992 1645.14 630.596 1690.82 639.454C1706.71 642.513 1723.47 642.99 1742.46 644.737C1821.19 652.007 1857.46 630.636 1907.55 604.062C1948.42 582.374 1995.5 555.204 2066.68 527.398C2143.1 496.96 2223.26 476.919 2305.02 467.815" stroke="#B195FF" stroke-opacity="0.5" stroke-miterlimit="10"/>
<path d="M17.0483 259.155C77.4337 275.196 136.653 295.343 194.293 319.454C199.854 321.837 205.455 323.783 210.897 325.77C319.5 365.492 336.621 374.032 396.245 408.59C447.607 438.342 463.774 466.148 520.737 480.607C554.587 488.857 589.823 489.67 624.017 482.99C654.445 477.429 672.718 462.811 690.792 447.478C710.653 430.517 728.767 411.45 757.328 394.092C824.539 353.416 896.359 358.342 914.075 347.259C959.098 349.621 1002.41 365.283 1038.53 392.265C1065.5 412.483 1081.39 437.151 1094.38 444.976C1167.87 554.689 1140.34 623.726 1228.21 665.99C1266.86 684.541 1314.96 684.819 1351.35 682.952C1358.42 682.594 1364.93 682.118 1370.61 681.76C1445.01 676.715 1474.65 650.856 1548.25 638.304C1609.79 627.857 1640.97 644.58 1687.28 652.882C1704.58 655.288 1721.99 656.773 1739.44 657.331C1818.29 662.455 1855.35 639.019 1905.29 610.459C1946.12 587.062 1992.91 558.423 2064.18 530.339C2141.17 499.665 2222.3 480.628 2304.9 473.854" stroke="#B195FF" stroke-opacity="0.5" stroke-miterlimit="10"/>
<path d="M14.7441 256.89C74.5101 272.177 133.389 290.742 191.115 312.501C196.676 314.686 202.277 316.473 207.719 318.181C317.752 354.408 335.905 360.048 394.417 393.653C446.534 423.366 461.391 451.846 519.108 466.544C553.1 474.912 588.527 475.618 622.825 468.609C653.611 462.691 671.685 447.596 689.481 431.707C709.024 414.309 726.781 394.686 755.858 377.089C824.539 335.619 898.861 342.849 915.147 333.395C961.471 337.505 1005.39 355.848 1040.87 385.907C1067.92 408.629 1083.65 435.044 1095.93 444.339C1169.41 562.751 1135.21 639.256 1222.01 684.301C1260.74 704.4 1309.4 704.639 1345.63 702.573C1352.78 702.176 1359.33 701.659 1365.01 701.222C1440.49 695.502 1468.73 667.419 1543.41 653.198C1606.09 641.282 1636.84 658.124 1683.51 665.909C1700.97 668.184 1718.54 669.391 1736.14 669.524C1815.11 672.503 1852.97 647.002 1902.7 616.416C1943.58 591.351 1990.09 561.202 2061.6 532.999C2139.21 502.051 2221.35 483.978 2304.78 479.493" stroke="#B195FF" stroke-opacity="0.5" stroke-miterlimit="10"/>
<path d="M12.5198 254.627C80.5654 271.906 141.62 289.503 187.937 305.63C193.578 307.617 199.179 309.126 204.581 310.715C316.084 343.128 335.23 346.147 392.312 378.243C445.501 408.273 459.206 437.389 517.559 452.364C551.738 460.834 587.395 461.419 621.832 454.072C652.975 447.757 670.851 432.265 688.408 415.78C707.475 397.905 724.993 377.766 754.547 359.931C824.778 317.666 901.523 327.08 916.419 319.692C964.012 325.596 1008.46 346.588 1043.25 379.593C1070.35 404.817 1087.7 431.431 1097.56 443.784C1188.92 558.701 1130.09 654.749 1215.85 702.654C1254.62 724.342 1303.96 724.501 1340.03 722.237C1347.26 721.8 1353.81 721.204 1359.53 720.728C1435.92 714.332 1462.81 684.024 1538.6 668.175C1602.44 654.789 1632.75 671.711 1679.9 678.94C1697.47 681.547 1715.25 682.491 1733.01 681.76C1812.02 679.059 1850.75 654.987 1900.32 622.455C1941.16 595.642 1987.31 564.024 2059.21 535.424C2137.49 504.218 2220.66 487.099 2304.9 484.857" stroke="#B195FF" stroke-opacity="0.5" stroke-miterlimit="10"/>
<path d="M10.176 252.361C78.9764 269.124 139.634 285.013 184.68 298.717C190.36 300.465 195.961 301.776 201.363 303.166C314.415 331.766 334.475 332.203 390.286 363.266C444.429 393.455 456.783 423.286 515.891 438.5C550.282 447.081 586.198 447.543 620.799 439.85C652.26 433.098 669.897 417.209 687.216 400.128C705.886 381.776 722.967 361.121 753.157 343.047C824.897 299.949 903.826 311.587 917.65 306.066C972.229 314.01 1015.13 342.451 1045.56 373.594C1072.61 401.399 1089.73 430.118 1099.07 443.505C1187.45 570.099 1124.89 670.517 1209.57 721.322C1248.38 744.559 1298.4 744.639 1334.31 742.176C1341.61 741.66 1348.25 741.064 1353.93 740.548C1431.35 733.437 1456.93 700.825 1533.76 683.387C1598.7 668.571 1628.57 685.612 1676.16 692.285C1693.92 694.691 1711.87 695.343 1729.75 694.231C1808.8 689.981 1848.44 663.288 1897.86 628.729C1938.65 600.209 1984.53 567.12 2056.75 538.242C2112.72 515.879 2194.07 491.608 2304.94 490.576" stroke="#B195FF" stroke-opacity="0.5" stroke-miterlimit="10"/>
<path d="M7.87183 250.099C77.3872 266.464 137.647 280.447 181.462 291.847C187.182 293.317 192.783 294.429 198.185 295.819C312.548 320.328 333.76 318.222 388.3 348.173C442.84 378.124 454.399 408.988 514.302 424.44C548.874 433.167 585.03 433.521 619.766 425.472C651.545 418.243 669.023 402.036 686.104 384.4C704.337 365.611 721.299 344.399 751.806 326.087C825.095 282.393 906.408 296.018 918.881 292.403C974.772 302.016 1017.71 333.794 1047.9 367.478C1074.87 397.587 1091.6 428.611 1100.61 442.95C1185.58 580.985 1119.64 686.05 1203.38 739.675C1242.19 764.541 1292.83 764.502 1328.66 761.84C1336.01 761.284 1342.69 760.609 1348.53 760.053C1426.94 752.108 1451.21 717.471 1529.07 698.324C1595.17 682.078 1624.64 699.238 1672.67 705.355C1690.6 707.574 1708.72 707.946 1726.73 706.468C1805.82 700.628 1846.3 671.313 1895.59 634.769C1936.35 604.54 1981.95 569.982 2054.48 540.826C2110.53 518.303 2192.64 494.47 2305.18 496.178" stroke="#B195FF" stroke-opacity="0.5" stroke-miterlimit="10"/>
<path d="M5.60791 247.833C75.7986 263.722 135.661 275.877 178.244 285.013C184.004 286.245 189.605 287.198 195.008 288.151C310.761 308.847 333.045 304.239 386.314 333.117C442.363 363.465 451.976 394.686 512.673 410.416C547.442 419.296 583.855 419.528 618.734 411.091C650.83 403.346 668.149 386.821 684.992 368.668C702.788 349.363 719.472 327.675 750.495 309.085C825.254 264.397 909.586 274.606 920.113 278.697C974.454 299.71 1020.25 325.053 1050.25 361.359C1077.1 393.892 1093.66 427.06 1102.2 442.75C1183.44 591.907 1114.36 701.977 1197.18 758.423C1235.99 784.878 1287.31 784.679 1322.98 781.859C1330.45 781.263 1337.13 780.548 1342.85 779.952C1422.29 771.452 1445.17 734.43 1524.1 713.616C1591.31 695.9 1620.35 713.219 1668.85 718.78C1686.97 720.804 1705.25 720.897 1723.39 719.058C1802.52 711.67 1843.87 679.693 1892.97 641.163C1933.73 609.385 1979.05 573.158 2051.86 543.724C2107.95 521.043 2190.89 497.726 2305.06 502.055" stroke="#B195FF" stroke-opacity="0.5" stroke-miterlimit="10"/>
<path d="M3.3042 245.571C74.2099 261.181 133.636 271.191 175.027 278.024C180.827 278.977 186.428 279.771 191.87 280.526C308.973 297.289 332.37 290.258 384.328 317.984C441.529 348.57 449.474 380.348 511.084 396.237C546.054 405.231 582.718 405.34 617.741 396.555C650.076 388.253 667.276 371.49 683.84 352.86C701.239 332.999 717.645 310.874 749.145 292.085C825.453 246.603 911.573 263.803 921.345 264.955C980.929 272.065 1022.76 316.276 1052.43 355.204C1072.5 382.361 1089.65 411.559 1103.59 442.315C1181.05 602.316 1108.92 717.669 1190.99 776.935C1229.75 804.979 1281.79 804.74 1317.34 801.682C1324.85 801.046 1331.6 800.252 1337.21 799.616C1417.61 790.281 1439.17 751.076 1519.22 728.712C1587.5 709.486 1616.18 727.083 1665.12 732.009C1683.42 733.838 1701.88 733.638 1720.14 731.413C1799.34 722.476 1841.45 687.719 1890.47 647.321C1931.15 613.597 1976.19 576.139 2049.36 546.466C2105.53 523.626 2189.19 500.746 2305.06 507.737" stroke="#B195FF" stroke-opacity="0.5" stroke-miterlimit="10"/>
<path d="M1 243.305C72.5016 258.24 131.57 266.423 171.809 271.11C304.961 286.602 329.351 275.083 382.342 302.888C440.337 333.355 447.21 366.086 509.456 382.333C544.622 391.477 581.542 391.477 616.708 382.333C683.363 364.06 685.191 312.342 747.794 275.083C825.612 228.767 914.075 249.144 922.576 251.249C1035.87 279.055 1088.7 403.425 1105.3 441.916C1178.91 612.404 1103.71 733.358 1184.75 795.444C1231.78 831.472 1299.47 823.249 1331.72 819.277C1413.12 809.347 1433.38 767.877 1514.45 743.805C1605.81 716.635 1625.95 755.722 1717.04 743.805C1862.34 724.619 1885.66 615.105 2046.74 549.166C2102.95 526.167 2187.4 503.764 2304.94 513.416" stroke="#B195FF" stroke-opacity="0.5" stroke-miterlimit="10"/>
<path d="M3.14551 248.272C73.3759 263.207 131.451 272.105 171.691 277.031C301.307 293.396 326.611 282.592 379.283 310.437C436.207 340.626 443.794 372.404 504.491 388.769C538.921 397.866 575.064 398.33 609.717 390.12C675.499 374.589 678.041 324.141 739.691 288.312C815.84 243.744 901.642 262.294 911.573 263.922C1004.49 278.977 1055.73 370.537 1080.95 419.395C1086.12 429.365 1089.85 437.945 1092.87 444.142C1168.34 605.534 1097.08 721.761 1176.92 780.391C1224.59 815.307 1292.84 806.528 1326.44 802.754C1357.24 799.374 1387.09 790.066 1414.35 775.346C1442.15 761.404 1468.17 745.673 1510.95 735.227C1524.06 732.049 1535.74 730.301 1546.23 728.792C1609.79 719.616 1634.29 742.218 1710.88 728.593C1740.51 723.391 1769.04 713.197 1795.25 698.444C1866.4 658.722 1910.89 587.222 2021.04 535.027C2027.5 531.955 2034.25 528.962 2041.3 526.049C2098.02 502.454 2183.74 478.979 2303.07 487.995" stroke="#B195FF" stroke-opacity="0.5" stroke-miterlimit="10"/>
<path d="M5.29004 253.236C74.0904 268.171 131.331 277.427 171.611 282.908C297.612 300.108 323.71 290.098 376.224 318.023C432.115 347.576 440.377 379.076 499.366 395.163C533.09 404.235 568.483 405.188 602.646 397.944C667.434 384.955 670.89 336.136 731.547 301.498C806.068 258.956 889.606 272.66 900.49 276.592C986.45 307.377 1042.22 376.891 1068.2 422.929C1073.48 432.304 1077.14 440.526 1080.12 446.325C1157.34 598.819 1090.29 710.041 1168.86 765.335C1216.92 799.099 1285.92 789.804 1320.88 786.189C1351.92 783.003 1382.17 774.469 1410.3 760.965C1438.54 748.373 1464.95 734.749 1507.22 726.685C1520.37 724.143 1532.13 723.189 1542.61 721.68C1605.97 712.504 1629.41 730.339 1704.45 713.338C1733.73 706.589 1761.78 695.276 1787.55 679.813C1856.03 640.09 1902.74 566.088 2015.12 512.145C2021.67 509.047 2028.51 505.949 2035.62 502.93C2092.82 478.739 2179.81 454.19 2300.97 462.532" stroke="#B195FF" stroke-opacity="0.5" stroke-miterlimit="10"/>
<path d="M7.43506 258.203C74.8054 273.099 131.172 282.91 171.412 288.987C293.839 306.902 320.811 297.806 373.086 325.731C427.904 354.807 436.881 385.711 494.44 401.719C527.439 410.712 562.053 412.071 595.655 405.691C659.212 395.165 663.78 347.975 723.444 314.688C796.336 274.012 877.212 284.419 889.486 289.186C957.743 316.543 1015.77 364.502 1055.49 426.387C1060.89 435.165 1064.51 443.03 1067.41 448.472C1146.3 591.75 1083.53 698.404 1160.72 750.361C1209.34 783.013 1278.97 773.122 1315.28 769.745C1346.57 766.693 1377.21 758.911 1406.16 746.667C1434.92 735.425 1461.78 723.946 1503.41 718.186C1516.67 716.359 1528.47 716.16 1538.96 714.651C1602.24 705.435 1624.4 718.623 1697.85 698.166C1726.74 689.833 1754.3 677.42 1779.68 661.304C1845.5 621.304 1894.64 545.196 2009 489.346C2015.6 486.169 2022.51 483.004 2029.74 479.853C2087.42 455.106 2175.72 429.485 2298.66 437.191" stroke="#B195FF" stroke-opacity="0.5" stroke-miterlimit="10"/>
<path d="M9.57983 263.126C75.5202 278.061 131.053 288.389 171.372 294.904C290.223 313.533 318.109 305.351 369.987 333.315C423.693 361.955 433.544 392.183 489.355 408.152C521.662 417.191 555.549 419.089 588.663 413.713C651.306 405.768 656.669 360.088 715.38 328.111C786.643 288.985 863.904 304.556 878.483 301.895C962.497 318.856 1015.33 389.284 1042.82 429.959C1048.34 438.102 1051.87 445.57 1054.97 450.694C1135.61 584.876 1077.14 686.684 1152.89 735.224C1202.15 766.764 1272.3 756.317 1309.99 753.099C1341.56 750.195 1372.61 743.171 1402.35 732.206C1431.67 722.315 1458.84 713.02 1499.95 709.524C1513.3 708.372 1525.13 708.968 1535.7 707.459C1598.9 698.243 1619.79 706.624 1691.89 682.871C1722.44 672.781 1747.5 658.322 1772.45 642.592C1835.69 602.513 1887.01 523.863 2003.56 466.385C2010.18 463.127 2017.17 459.883 2024.53 456.653C2082.73 431.27 2172.3 404.577 2297.03 411.647" stroke="#B195FF" stroke-opacity="0.5" stroke-miterlimit="10"/>
<path d="M11.6858 268.093C76.0769 282.989 130.895 293.833 171.412 300.586C286.609 319.891 315.21 312.82 367.088 340.626C419.682 368.908 430.129 398.421 484.549 414.31C516.104 423.345 549.196 425.699 581.712 421.222C643.164 415.343 649.599 371.688 707.317 341.063C776.911 304.161 851.352 318.341 867.559 314.488C949.071 329.901 1001.86 395.442 1030.19 433.417C1035.83 440.964 1039.32 448.074 1042.5 452.841C1124.85 577.847 1070.78 674.848 1145.03 720.092C1194.92 750.519 1265.62 739.476 1304.63 736.497C1344.36 733.478 1372.36 725.256 1398.5 717.788C1428.37 709.248 1456.18 696.855 1496.42 700.866C1508.31 702.149 1520.32 701.948 1532.17 700.271C1595.33 691.055 1614.87 694.829 1685.58 667.54C1715.17 656.139 1739.8 640.449 1765.02 623.845C1825.68 583.805 1879.19 502.732 1997.88 443.387C2004.58 440.05 2011.65 436.714 2019.09 433.377C2077.76 407.438 2168.61 379.673 2295.17 386.068" stroke="#B195FF" stroke-opacity="0.5" stroke-miterlimit="10"/>
<path d="M13.8303 273.097C76.9503 287.993 130.775 299.354 171.134 306.544C282.875 326.405 312.389 320.367 364.029 348.252C415.669 376.137 426.752 404.896 479.544 420.824C525.543 434.687 563.876 431.708 574.879 429.126C633.55 415.224 642.607 383.644 699.371 354.369C767.298 319.334 838.998 332.244 856.715 327.239C935.684 341.142 988.397 401.639 1017.67 436.991C1023.39 443.943 1026.85 450.696 1030.07 455.144C1114.12 570.974 1064.59 663.051 1137.32 705.156C1187.93 734.471 1259.07 722.833 1299.47 720.052C1339.87 717.271 1368.19 709.804 1394.8 703.488C1425.19 696.298 1453.95 685.533 1493.04 692.405C1504.84 694.587 1516.9 694.869 1528.79 693.239C1591.87 684.024 1610.1 683.19 1679.38 652.405C1708.06 639.694 1732.13 622.732 1757.4 605.414C1815.51 565.691 1871.24 481.877 1992.04 420.666C1998.79 417.249 2005.94 413.833 2013.49 410.417C2072.68 383.883 2164.8 355.044 2293.14 360.764" stroke="#B195FF" stroke-opacity="0.5" stroke-miterlimit="10"/>
<path d="M15.9758 277.942C77.6658 292.957 130.617 304.874 171.015 312.342C279.181 332.679 309.569 327.794 360.971 355.679C411.419 383.087 423.336 411.29 474.579 427.179C519.307 441.042 556.567 439.334 567.73 436.871C625.249 424.08 635.259 395.48 691.11 367.556C757.368 334.348 826.168 346.066 845.553 339.75C922.02 352.104 974.534 407.278 1004.8 440.366C1009.27 445.75 1013.46 451.358 1017.36 457.169C1103.04 563.823 1058.15 650.934 1129.14 689.941C1180.5 718.104 1252.08 705.83 1293.83 703.327C1333.99 700.865 1363.5 694.072 1390.63 688.948C1421.58 683.109 1451.29 674.251 1489.19 683.665C1500.92 686.772 1513.14 687.555 1525.18 685.969C1588.22 676.714 1605.1 671.351 1672.98 636.991C1700.79 622.969 1724.23 604.816 1749.69 586.624C1805.3 546.901 1863.22 460.704 1986.12 397.625C1992.93 394.13 2000.16 390.634 2007.81 387.139C2067.4 360.008 2160.86 330.098 2291.04 335.182" stroke="#B195FF" stroke-opacity="0.5" stroke-miterlimit="10"/>
<path d="M18.1206 282.828C78.3805 297.763 130.458 310.077 170.935 318.181C275.487 339.074 306.749 335.301 358.111 363.186C407.486 390.157 420.118 417.645 469.772 433.454C513.468 447.318 549.457 446.881 560.937 444.537C617.343 432.978 628.466 407.238 683.204 380.624C747.794 349.283 813.933 359.77 834.748 352.381C908.673 363.186 960.908 413.434 992.329 443.743C996.838 448.681 1001.07 453.866 1005 459.274C1092.39 556.713 1052.15 638.779 1121.39 674.767C1173.51 701.818 1245.48 688.987 1288.58 686.684C1329.1 684.459 1359.29 678.382 1386.9 674.449C1419.71 669.936 1453 670.11 1485.77 674.966C1499.75 676.753 1511.51 680.249 1521.88 678.938C1584.84 669.643 1600.37 659.831 1666.87 621.857C1693.64 606.564 1716.64 587.1 1742.34 568.113C1795.53 528.708 1855.51 439.77 1980.68 374.824C1987.51 371.289 1994.86 367.674 2002.65 364.06C2062.79 336.254 2157.57 305.35 2289.41 309.799" stroke="#B195FF" stroke-opacity="0.5" stroke-miterlimit="10"/>
<path d="M20.4646 289.66C79.2945 304.556 130.537 317.466 171.015 325.926C271.832 347.257 303.968 344.596 354.854 372.6C403.197 399.134 416.504 425.947 464.609 441.717C506.874 455.58 541.91 456.374 553.707 454.189C609.081 443.981 621.038 420.942 674.942 395.679C737.824 366.205 801.222 375.46 823.546 366.92C895.048 376.175 946.688 421.18 979.42 449.224C983.97 453.71 988.255 458.458 992.25 463.445C1081.03 551.668 1045.84 628.649 1113.25 661.659C1166.2 687.597 1238.49 674.211 1282.98 672.106C1323.78 670.159 1354.68 664.797 1382.77 662.056C1414.79 658.918 1444.62 661.579 1482.08 668.372C1496.26 670.954 1507.98 675.124 1518.3 673.615C1581.19 664.32 1595.41 650.06 1660.51 608.391C1686.33 591.827 1708.78 571.132 1734.68 551.271C1785.48 512.263 1847.53 420.584 1974.64 353.732C1981.55 350.077 1988.94 346.423 1996.85 342.689C2057.46 314.407 2153.4 282.351 2287.18 286.125" stroke="#B195FF" stroke-opacity="0.5" stroke-miterlimit="10"/>
<path d="M22.4109 306.86C79.8108 321.756 130.18 335.063 170.697 344.08C268.138 365.808 301.148 364.458 351.795 392.263C399.065 418.361 413.087 444.538 459.643 460.228C500.637 474.091 534.561 476.117 546.716 474.091C601.057 465.312 613.888 444.895 666.839 420.982C728.012 393.177 788.669 401.439 812.543 391.667C881.423 399.612 928.733 445.531 966.748 464.875C971.793 470.278 976.162 474.647 979.658 477.745C1069.95 556.713 1039.8 628.69 1105.3 658.72C1159.13 683.467 1231.74 669.524 1277.58 667.657C1318.65 665.989 1350.27 661.341 1378.84 659.713C1411.41 657.925 1441.8 663.208 1478.34 671.828C1492.72 675.205 1504.4 680.051 1514.69 678.501C1577.53 669.206 1590.4 650.696 1654.08 605.174C1678.98 587.418 1700.87 565.452 1726.97 544.677C1775.43 506.107 1839.5 411.608 1968.72 342.888C1975.69 339.207 1983.17 335.447 1991.17 331.607C2052.3 302.928 2149.62 269.8 2285.08 273.096" stroke="#B195FF" stroke-opacity="0.5" stroke-miterlimit="10"/>
<path d="M24.437 322.353C80.526 337.249 130.021 350.993 170.578 360.486C264.484 382.572 298.526 382.572 348.736 410.536C394.934 436.157 409.672 461.699 454.638 477.349C494.361 491.172 527.172 494.271 539.725 492.563C593.073 485.294 606.738 467.458 658.894 444.896C718.479 419.077 776.276 425.949 801.699 415.025C868.036 421.222 914.87 462.97 954.196 479.057C958.317 483.168 962.681 487.028 967.265 490.616C1058.95 560.408 1033.96 626.983 1097.52 654.351C1152.26 677.907 1225.11 663.408 1272.3 661.819C1313.69 660.389 1346.02 656.457 1375.02 656.099C1408.15 655.662 1439.14 663.646 1474.89 674.014C1489.42 678.224 1501.1 683.706 1511.39 681.958C1574.11 672.624 1585.71 649.704 1647.96 600.488C1671.79 581.54 1693.28 558.343 1719.46 536.654C1765.58 498.601 1831.64 401.202 1962.96 330.576C1969.96 326.603 1977.54 322.949 1985.65 319.056C2047.26 289.542 2145.73 255.501 2283.13 257.844" stroke="#B195FF" stroke-opacity="0.5" stroke-miterlimit="10"/>
<path d="M26.6611 337.844C81.2804 352.74 129.941 366.921 170.459 376.971C260.829 399.295 295.507 400.605 345.677 428.61C390.803 453.794 406.255 478.699 449.672 494.27C488.204 508.094 519.823 509.246 532.733 510.874C584.969 517.548 599.587 489.822 650.631 468.65C708.429 444.816 763.564 450.338 790.536 438.222C854.371 442.87 900.649 480.288 941.484 493.119C945.646 496.826 950.051 500.25 954.672 503.367C1047.7 563.943 1027.96 625.155 1089.73 649.823C1145.34 672.147 1218.47 657.171 1267.05 655.781C1308.76 654.629 1341.77 651.451 1371.25 652.246C1404.93 653.159 1436.43 663.924 1471.43 676.079C1486.17 681.124 1497.77 687.201 1508.05 685.692C1570.74 676.317 1581.07 649.108 1641.8 596.079C1664.88 575.939 1685.7 551.47 1712.15 528.869C1755.85 491.371 1824.01 391.032 1957.44 318.341C1964.51 314.527 1972.15 310.555 1980.36 306.424C2042.45 276.315 2142.23 241.041 2281.42 242.868" stroke="#B195FF" stroke-opacity="0.5" stroke-miterlimit="10"/>
<path d="M28.8062 353.377C81.9954 368.432 129.743 382.851 170.34 393.417C257.174 415.98 292.687 418.681 342.619 446.725C386.671 471.432 402.839 495.543 444.667 511.432C481.967 525.256 512.514 527.321 525.702 529.426C576.627 537.371 592.397 512.425 642.528 492.604C698.617 470.399 751.051 474.927 779.533 461.621C840.826 464.759 886.785 497.768 928.653 507.381C932.855 510.694 937.304 513.682 941.961 516.318C1036.26 567.719 1022 623.568 1081.47 645.534C1138.15 666.547 1211.4 651.096 1261.29 649.983C1303.32 649.07 1337.05 646.647 1367 648.633C1401.24 650.897 1433.26 664.522 1467.5 678.146C1482.39 684.105 1493.99 690.778 1504.24 689.229C1566.84 679.854 1575.98 648.394 1635.33 591.512C1657.49 570.181 1677.75 544.481 1704.37 520.926C1746 484.024 1815.91 380.706 1951.44 306.426C1958.57 302.48 1966.29 298.508 1974.6 294.509C2037.21 263.844 2138.22 227.498 2279.24 228.689" stroke="#B195FF" stroke-opacity="0.5" stroke-miterlimit="10"/>
<path d="M30.9517 368.867C82.5917 383.723 129.584 398.738 170.221 409.86C253.639 432.581 289.867 436.792 339.56 464.796C382.58 489.066 399.423 512.74 439.702 528.351C475.731 542.175 505.206 545.154 518.711 547.736C568.286 557.15 585.248 534.747 634.425 516.315C688.806 495.938 738.499 499.275 768.53 484.776C827.32 486.365 872.604 515.044 915.982 521.4C920.235 524.305 924.726 526.843 929.409 528.987C1024.74 571.37 1016.16 621.42 1073.52 640.964C1130.88 660.507 1204.61 644.936 1255.89 643.943C1298.2 643.268 1332.64 641.56 1363.14 644.737C1397.9 648.352 1430.44 664.599 1463.96 680.09C1479.02 686.962 1490.62 694.152 1500.83 692.642C1563.35 683.228 1571.33 647.597 1628.97 586.783C1650.3 564.3 1670.01 537.368 1696.78 512.82C1736.18 476.633 1808 370.257 1945.6 293.911C1952.75 289.939 1960.58 285.966 1969 281.637C2032 250.216 2134.33 212.798 2277.13 213.513" stroke="#B195FF" stroke-opacity="0.5" stroke-miterlimit="10"/>
<path d="M33.0962 384.321C83.4253 399.177 129.464 414.589 170.141 426.228C249.905 449.108 287.046 454.788 336.501 482.832C378.449 506.666 396.086 529.665 434.697 545.077C469.534 558.9 497.936 562.793 511.72 565.852C559.983 576.537 578.057 556.914 626.361 539.834C678.994 521.244 725.946 523.468 757.447 507.778C813.695 507.778 858.463 532.128 903.191 535.226C907.527 537.721 912.073 539.835 916.776 541.542C1013.54 574.988 1010.36 619.159 1065.58 636.319C1124.33 654.551 1197.82 638.384 1250.49 637.828C1293.07 637.352 1328.23 636.398 1359.13 640.768C1394.45 645.733 1427.42 665.038 1460.27 681.92C1475.48 689.864 1487.04 697.451 1497.25 695.902C1559.73 686.528 1566.57 646.686 1622.62 581.939C1643.07 558.304 1662.34 530.3 1689.11 504.6C1726.37 469.128 1800.02 359.693 1939.73 281.441C1946.95 277.389 1954.83 273.205 1963.36 268.888C2026.92 237.111 2130.51 198.58 2275.15 198.461" stroke="#B195FF" stroke-opacity="0.5" stroke-miterlimit="10"/>
<path d="M35.2415 399.89C84.1406 414.746 129.306 430.516 170.022 442.751C246.29 465.71 284.265 472.939 333.443 501.063C374.318 524.38 392.59 546.783 429.731 562.116C454.046 571.65 479.138 579.066 504.729 584.281C551.681 596.197 570.868 579.355 618.257 563.665C669.143 546.862 713.593 547.776 746.523 531.053C800.229 529.583 844.52 549.524 890.599 549.405C895.004 551.479 899.592 553.141 904.303 554.37C1001.94 578.839 1004.64 617.012 1057.63 631.828C1117.5 648.551 1191.06 633.099 1245.05 631.828C1287.95 630.835 1323.78 631.431 1355.2 636.953C1390.95 643.268 1424.48 665.513 1456.65 683.904C1471.99 692.643 1483.59 700.905 1493.75 699.356C1556.16 689.942 1561.92 645.969 1616.34 577.25C1635.92 552.503 1654.59 523.188 1681.56 496.534C1716.64 461.817 1792.11 349.284 1933.93 269.125C1941.2 265.152 1949.14 260.743 1957.76 256.334C2021.83 223.881 2126.7 184.318 2273.12 183.563" stroke="#B195FF" stroke-opacity="0.5" stroke-miterlimit="10"/>
<path d="M37.386 415.421C85.0537 430.277 129.186 446.364 169.902 459.115C242.675 482.074 281.445 490.893 330.423 519.056C370.146 541.896 389.174 563.704 424.726 578.957C448.421 588.747 472.829 596.715 497.737 602.79C543.458 615.859 563.677 601.837 610.153 587.616C659.291 572.522 700.881 572.482 735.519 554.448C786.722 551.39 830.497 567.001 877.887 563.624C882.373 565.262 887.001 566.485 891.711 567.279C990.462 582.969 998.963 614.945 1049.69 627.498C1110.7 642.592 1184.27 626.941 1239.65 625.988C1282.86 625.273 1319.37 626.584 1351.27 633.297C1387.65 640.963 1421.46 666.147 1453.08 686.048C1468.45 695.74 1480.13 704.519 1490.26 702.97C1552.62 693.516 1557.31 645.412 1610.02 572.721C1628.81 546.822 1646.97 516.355 1673.98 488.668C1707.03 454.746 1784.25 339.074 1928.21 256.969C1935.51 252.798 1943.58 248.428 1952.32 243.9C2016.91 210.891 2123.13 170.255 2271.25 168.825" stroke="#B195FF" stroke-opacity="0.5" stroke-miterlimit="10"/>
<path d="M39.4915 430.953C85.5702 445.769 129.067 462.214 169.783 475.68C238.941 498.679 278.664 509.087 327.365 537.289C366.095 559.693 385.758 580.984 419.761 596.039C442.836 605.902 466.536 614.235 490.706 620.984C535.236 635.165 556.488 624.043 601.931 611.212C649.36 597.906 688.209 596.754 724.397 577.488C773.058 572.92 816.316 584.162 865.096 577.488C869.66 578.704 874.328 579.489 879.039 579.832C978.903 586.823 993.084 612.325 1041.63 622.772C1103.79 636.198 1177.36 620.388 1234.12 619.832C1277.62 619.356 1314.84 621.381 1347.22 629.286C1384.16 638.303 1418.32 666.426 1449.34 687.837C1464.8 698.522 1476.51 707.698 1486.64 706.228C1548.93 696.774 1552.66 644.5 1603.63 567.836C1621.58 540.825 1639.38 509.246 1666.27 480.447C1697.41 447.358 1776.22 328.708 1922.33 244.497C1929.67 240.247 1937.82 235.798 1946.68 231.19C2011.74 197.625 2119.15 155.877 2269.19 153.93" stroke="#B195FF" stroke-opacity="0.5" stroke-miterlimit="10"/>
<path d="M41.6365 446.485C86.2852 461.341 129.027 478.024 169.664 492.205C235.525 515.125 275.844 527.24 324.306 555.443C362.003 577.369 382.341 597.985 414.755 613.04C437.22 623.127 460.245 631.92 483.715 639.376C527.053 654.669 549.258 646.406 593.946 635.006C639.628 623.407 675.776 621.183 713.513 600.766C759.671 594.648 802.413 601.52 852.544 591.669C857.206 592.292 861.902 592.623 866.606 592.662C967.502 597.151 987.523 609.941 1033.8 618.363C1097.12 629.882 1170.73 613.358 1228.8 613.914C1272.5 614.351 1310.55 616.456 1343.4 625.552C1380.9 635.92 1415.34 667.022 1445.85 689.902C1461.38 701.581 1473.18 711.273 1483.27 709.763C1545.51 700.309 1548.29 643.944 1597.43 563.308C1614.59 535.144 1631.87 502.453 1658.84 472.463C1687.84 440.208 1768.52 318.221 1916.53 232.263C1923.97 227.92 1932.16 223.405 1941.12 218.717C2006.66 184.477 2115.38 141.696 2267.2 138.995" stroke="#B195FF" stroke-opacity="0.5" stroke-miterlimit="10"/>
<path d="M43.782 461.977C87.0007 476.794 128.909 493.755 169.545 508.611C231.99 531.412 273.024 545.235 321.248 573.517C357.872 594.967 378.886 614.987 409.791 629.963C438.391 643.865 461.431 651.81 476.724 657.768C518.91 674.094 542.068 668.731 585.843 658.841C625.441 649.749 664.41 638.112 702.51 624.004C744.299 609.307 787.915 594.689 839.833 605.772C844.546 606.428 849.334 606.32 854.014 605.454C956.261 595.364 981.803 607.44 1025.86 613.915C1090.37 623.369 1163.93 607.083 1223.4 607.956C1267.53 608.592 1306.14 611.492 1339.47 621.74C1377.48 633.657 1412.24 667.579 1442.23 691.929C1457.8 704.601 1469.72 714.769 1479.81 713.22C1541.94 703.727 1543.85 643.23 1591.04 558.621C1607.4 529.306 1624.28 495.582 1651.14 464.44C1677.99 433.298 1760.65 308.093 1910.61 219.91C1918.08 215.58 1926.5 210.933 1935.44 206.126C2001.49 171.33 2111.45 127.476 2265.14 124.1" stroke="#B195FF" stroke-opacity="0.5" stroke-miterlimit="10"/>
<path d="M45.9268 477.506C87.7155 492.322 128.829 509.284 169.466 525.172C228.454 547.854 270.243 563.425 318.189 591.747C353.94 612.72 375.47 632.144 404.785 647.04C432.154 660.983 454.399 669.682 469.732 676.157C510.806 693.515 534.839 691.013 577.739 682.631C619.886 674.409 647.851 663.922 691.506 647.279C730.832 632.264 772.7 629.364 827.161 619.87C832.166 618.996 836.972 619.076 841.461 618.281C944.979 599.691 976.083 604.855 1017.91 609.463C1083.57 616.653 1157.18 600.843 1217.96 601.995C1262.41 602.869 1301.73 606.524 1335.54 617.884C1374.11 630.992 1409.1 668.013 1438.62 693.873C1454.23 707.537 1466.42 718.183 1476.32 716.634C1538.36 707.14 1539.44 642.472 1584.84 553.772C1600.45 523.305 1616.98 488.628 1643.67 456.215C1668.81 425.708 1752.91 297.524 1904.93 207.434C1912.48 203.025 1920.82 198.298 1929.99 193.373C1996.53 158.02 2107.79 113.094 2263.23 109.042" stroke="#B195FF" stroke-opacity="0.5" stroke-miterlimit="10"/>
<path d="M48.2703 492.999C88.6289 507.816 128.988 525.095 169.545 541.5C225.157 564.023 267.621 581.222 315.329 609.743C349.848 630.24 372.252 649.068 400.018 663.924C426.116 677.827 447.408 687.241 462.94 694.391C502.941 712.782 527.847 713.14 569.874 706.308C610.233 699.714 635.775 689.028 680.702 670.558C717.684 655.225 758.797 648.035 814.648 634.013C819.613 632.782 824.539 632.265 829.107 631.113C933.976 604.063 970.68 609.544 1010.16 605.016C1077.43 597.629 1145.1 594.657 1212.75 596.118C1257.52 597.191 1297.52 601.6 1331.92 614.231C1371.05 628.69 1406.24 668.691 1435.2 696.02C1450.81 710.677 1463.01 721.76 1473.02 720.25C1535.03 710.717 1535.22 641.918 1578.76 549.445C1593.62 517.865 1609.86 482.235 1636.32 448.51C1659.56 418.917 1745.2 287.437 1899.33 195.48C1906.91 190.991 1915.22 186.185 1924.63 181.18C1991.68 145.191 2104.18 99.1932 2261.44 94.5457" stroke="#B195FF" stroke-opacity="0.5" stroke-miterlimit="10"/>
<path d="M50.2168 504.162C89.1454 518.978 128.749 536.376 169.386 553.616C221.662 575.9 264.721 595.086 312.389 623.487C345.876 643.348 368.955 661.779 395.172 676.516C419.999 690.459 440.377 700.588 456.028 708.294C495.076 727.679 520.737 730.896 561.89 725.613C600.501 720.648 623.739 709.963 669.817 689.148C704.535 673.458 745.053 662.137 802.095 643.468C807.061 641.839 811.986 640.766 816.674 639.217C922.973 603.785 965.119 600.448 1002.34 595.92C1070.38 587.548 1138.93 584.056 1207.47 585.473C1252.52 586.784 1293.23 591.948 1327.95 605.771C1367.67 621.66 1403.03 664.52 1431.71 693.16C1447.28 708.811 1459.51 720.409 1469.64 718.86C1531.57 709.287 1531.01 636.357 1572.56 539.872C1586.67 507.101 1602.75 470.596 1628.85 435.561C1650.26 406.842 1737.42 272.104 1893.65 178.241C1901.27 173.673 1909.81 168.787 1919.19 163.702C1986.72 127.118 2100.52 80.0474 2259.58 74.7247" stroke="#B195FF" stroke-opacity="0.5" stroke-miterlimit="10"/>
<path d="M52.2432 510.158C89.7418 524.974 128.67 542.373 168.989 560.526C217.928 582.572 261.782 603.505 308.894 632.026C341.348 651.529 365.063 669.285 389.731 683.903C413.326 697.885 432.79 708.65 448.6 717.15C486.695 737.528 513.11 743.566 553.35 739.872C590.213 736.495 611.306 726.088 658.378 702.851C690.871 686.962 730.912 671.39 788.948 648.034C793.953 646.048 798.918 644.419 803.645 642.473C911.533 598.58 958.804 586.306 993.959 581.896C1062.4 573.356 1136.72 567.874 1201.59 569.98C1246.95 571.449 1288.35 577.408 1323.58 592.423C1363.82 609.583 1399.33 655.462 1427.66 685.81C1443.23 702.493 1455.74 714.489 1465.71 712.94C1527.6 703.407 1526.25 626.266 1565.85 525.848C1579.2 491.926 1595.21 454.587 1620.83 418.161C1640.45 390.356 1729.07 252.361 1887.41 156.591C1895.12 151.983 1903.7 146.978 1913.19 141.774C1981.24 104.634 2096.27 56.4905 2257.15 50.413" stroke="#B195FF" stroke-opacity="0.5" stroke-miterlimit="10"/>
<path d="M54.4673 515.881C90.5756 530.657 128.869 548.056 168.989 567.202C215.892 589.179 261.61 613.602 305.954 640.37C337.375 659.437 361.567 676.636 384.884 691.095C407.169 705.197 425.759 716.557 441.728 725.733C478.909 747.143 506.039 755.962 545.365 753.896C580.52 752.069 599.587 742.178 647.493 716.319C677.921 699.914 717.525 680.37 776.395 652.366C781.4 649.983 786.405 647.798 791.211 645.494C900.649 593.14 952.686 569.823 986.133 567.639C1056.01 563.19 1130.05 551.75 1196.31 554.252C1241.99 555.881 1284.06 562.713 1319.77 578.88C1360.56 597.391 1396.19 646.408 1424.16 678.186C1439.65 695.862 1452.36 708.335 1462.33 706.825C1524.14 697.213 1521.92 615.901 1559.65 511.551C1572.98 472.462 1591.02 435.14 1613.36 400.408C1631.24 373.437 1721.29 232.224 1881.69 134.547C1889.44 129.86 1898.1 124.776 1907.71 119.493C1976.23 81.7565 2092.58 32.5407 2255.25 25.9071" stroke="#B195FF" stroke-opacity="0.5" stroke-miterlimit="10"/>
<path d="M56.6123 521.361C141.709 557.643 224.025 600.128 302.895 648.472C429.771 726.288 464.449 768.314 537.262 767.639C590.292 767.123 602.805 744.56 763.683 656.417C884.68 590.12 945.178 557.111 978.188 553.139C1096.8 539.276 1226.46 522.116 1315.83 565.056C1380.27 595.999 1431.03 704.401 1458.84 700.111C1541.26 687.321 1508.73 539.236 1605.81 382.333C1621.98 356.196 1713.42 211.806 1875.93 112.222C1939.01 73.5725 2065.65 9.30194 2253.3 1" stroke="#B195FF" stroke-opacity="0.5" stroke-miterlimit="10"/>
</svg>
