<svg width="138" height="141" viewBox="0 0 138 141" fill="none" xmlns="http://www.w3.org/2000/svg">
<g filter="url(#filter0_dd_1_2029)">
<path d="M125.423 64.3809C124.694 63.2178 124.23 61.9029 124.066 60.533C123.995 60.0232 123.931 59.5108 123.898 58.997C123.839 58.0963 124.042 57.2246 124.238 56.357C124.62 54.6713 124.867 52.9815 124.566 51.2477C124.184 48.793 123.131 46.4967 121.528 44.6238C120.779 43.7615 119.866 43.0969 118.95 42.4384C117.914 41.6944 116.937 40.8961 116.317 39.7326C116.274 39.6508 116.205 39.5836 116.154 39.5054C115.58 38.6152 115.029 37.7138 114.821 36.6458C114.753 36.2932 114.688 35.9397 114.607 35.5898C114.38 34.6022 114.216 33.5916 113.897 32.6352C113.225 30.6192 111.974 28.9846 110.429 27.577C108.979 26.2333 107.206 25.3037 105.291 24.8833C104.751 24.7649 104.213 24.6382 103.677 24.5036C102.878 24.3392 102.115 24.0294 101.424 23.5887C100.956 23.2635 100.496 22.9254 100.016 22.6189C99.2692 22.1195 98.6323 21.4676 98.1455 20.7047C97.7717 20.1508 97.406 19.5913 97.0355 19.0345C96.2863 17.8845 95.328 16.8911 94.2121 16.1085C92.0651 14.6239 89.7113 13.7529 87.1007 13.7551C86.2434 13.7966 85.3894 13.8952 84.5449 14.051C83.8915 14.14 83.2434 14.267 82.59 14.363C81.7224 14.4878 80.8799 14.2763 80.0346 14.1307C78.8142 13.9593 77.6488 13.5031 76.6297 12.7972C76.2559 12.5244 75.8673 12.2692 75.4726 12.0292C74.9332 11.7007 74.3972 11.3599 73.8322 11.0832C72.265 10.3473 70.5542 9.98254 68.829 10.0169C66.6387 10.0133 64.5661 10.4904 62.6876 11.6865C62.2062 11.993 61.7368 12.3192 61.2535 12.6225C60.7824 12.9172 60.3038 13.1964 59.8257 13.4774C59.2603 13.8071 58.594 13.9106 57.9578 13.7671C57.2058 13.6173 56.4505 13.4791 55.7067 13.2926C53.9509 12.8109 52.1068 12.7656 50.3302 13.1604C47.8384 13.7495 45.613 14.843 43.8701 16.8011C43.3458 17.3903 42.8981 18.0491 42.4085 18.6714C42.0151 19.1708 41.6141 19.664 41.2116 20.156C40.9082 20.5367 40.4758 20.788 39.9998 20.8607C39.2282 20.9859 38.4597 21.1487 37.683 21.2221C35.3895 21.4143 33.2001 22.2848 31.3849 23.7262C29.2742 25.3978 27.7607 27.4812 27.0468 30.133C26.9091 30.6451 26.7517 31.152 26.5888 31.6567C25.9905 33.6206 24.6662 35.2728 22.897 36.262C22.2413 36.6367 21.5839 37.0087 20.9369 37.3987C20.1489 37.8573 19.432 38.4328 18.8102 39.1062C16.1045 42.1252 14.8478 45.6251 15.4046 49.7381C15.532 50.6804 15.6401 51.6411 15.4366 52.5871C15.28 53.3179 15.0492 54.0317 14.8678 54.7574C14.6547 55.5758 14.2839 56.3426 13.7769 57.0134C13.2988 57.6643 12.8053 58.3034 12.3239 58.9519C11.5319 59.9937 10.9504 61.1855 10.6131 62.458C10.4077 63.2262 10.2575 64.0086 10.1637 64.7992C9.91809 67.0976 10.1802 69.3258 11.2219 71.4154C11.5554 72.0843 11.9097 72.7424 12.253 73.406C12.5757 74.03 12.917 74.6633 12.9949 75.3648C13.0943 76.2617 13.4323 77.1168 13.385 78.0396C13.3647 78.4399 13.4792 78.8455 13.4985 79.2506C13.5437 80.1688 13.3145 81.0492 13.1 81.929C12.7924 83.1887 12.4714 84.4456 12.4528 85.7649C12.5314 86.4625 12.5689 87.1684 12.6965 87.8567C13.0861 90.1664 14.0932 92.3226 15.6066 94.087C16.3448 94.9352 17.2367 95.6038 18.1166 96.2842C19.0591 96.9857 19.8606 97.8658 20.4767 98.8762C21.1192 99.9252 21.5394 101.1 21.7102 102.324C21.8687 103.516 21.9815 104.727 22.4123 105.855C23.9217 109.808 26.5836 112.531 30.6404 113.731C31.4647 113.975 32.2971 114.195 33.1096 114.475C34.23 114.848 35.1867 115.612 35.8111 116.63C36.1879 117.238 36.5586 117.852 36.8928 118.484C37.9665 120.542 39.6161 122.23 41.6315 123.332C43.3239 124.274 45.1104 124.914 47.0584 124.925C47.9606 124.931 48.8643 124.826 49.7669 124.757C50.6225 124.691 51.4777 124.547 52.334 124.717C52.7848 124.806 53.2314 124.92 53.6765 125.035C54.7971 125.325 55.8855 125.689 56.8104 126.438C57.2308 126.778 57.6738 127.089 58.094 127.43C59.7916 128.82 61.8467 129.683 64.0126 129.915C66.4302 130.191 68.7598 129.922 70.9369 128.738C71.5999 128.378 72.2558 128.001 72.9174 127.639C73.542 127.269 74.2243 127.01 74.9349 126.875C75.7079 126.756 76.4825 126.65 77.259 126.557C77.5322 126.516 77.8099 126.515 78.0833 126.555C78.987 126.723 79.8947 126.884 80.7829 127.119C82.5144 127.577 84.2526 127.755 86.0206 127.401C89.2145 126.761 91.8917 125.258 93.8296 122.527C93.9193 122.4 94.0196 122.281 94.1122 122.156C94.859 121.083 95.8091 120.174 96.9067 119.481C98.1472 118.721 99.41 118.119 100.862 117.938C101.745 117.83 102.621 117.666 103.484 117.446C106.886 116.57 110.614 113.241 111.686 109.37C111.807 108.934 111.934 108.499 112.043 108.06C112.37 106.734 112.814 105.482 113.631 104.353C114.461 103.205 115.338 102.148 116.569 101.437C116.943 101.221 117.304 100.983 117.667 100.749C118.417 100.29 119.115 99.7459 119.747 99.1279C121.222 97.6087 122.306 95.7418 122.903 93.6934C123.347 92.3394 123.506 90.9051 123.371 89.4841C123.269 88.5839 123.145 87.6861 123.041 86.7863C122.923 85.996 122.942 85.1908 123.095 84.407C123.23 83.8144 123.378 83.2247 123.504 82.631C123.637 81.9866 123.884 81.3727 124.234 80.8192C124.618 80.2159 125.015 79.6217 125.426 79.0363C126.336 77.7919 126.998 76.3769 127.372 74.8723C127.596 73.9136 127.717 72.9329 127.734 71.9475C127.766 70.0124 127.461 68.1445 126.575 66.4112C126.225 65.715 125.84 65.0372 125.423 64.3809ZM124.262 72.7088C124.125 74.2916 123.551 75.8028 122.606 77.0666C122.095 77.7694 121.627 78.5066 121.172 79.2475C120.731 79.9828 120.408 80.7849 120.215 81.6235C120.148 81.8942 120.041 82.1543 119.951 82.4191C119.925 82.475 119.903 82.5333 119.886 82.5931C119.787 83.2547 119.693 83.9174 119.594 84.5788C119.491 85.4966 119.51 86.4241 119.651 87.3366C119.759 88.2676 119.904 89.1956 119.972 90.1292C120.139 92.4003 118.709 95.9432 116.27 97.512C115.661 97.9044 115.048 98.2927 114.44 98.688C113.304 99.3823 112.318 100.304 111.541 101.397C111.464 101.51 111.346 101.595 111.261 101.705C111.131 101.873 111.008 102.047 110.892 102.226C110.808 102.355 110.755 102.507 110.662 102.628C109.943 103.588 109.411 104.68 109.098 105.844C108.913 106.489 108.726 107.134 108.573 107.788C108.02 110.148 106.591 111.835 104.657 113.142C103.668 113.777 102.554 114.185 101.394 114.335C100.41 114.493 99.4206 114.647 98.4592 114.903C97.7887 115.121 97.1344 115.388 96.5011 115.7C96.1921 115.833 95.8925 115.988 95.5894 116.135C95.5197 116.166 95.4526 116.204 95.3892 116.248C95.0286 116.509 94.6775 116.785 94.3093 117.034C93.4457 117.634 92.6795 118.369 92.0387 119.21C91.6746 119.674 91.3036 120.134 90.9598 120.613C89.8243 122.195 88.2781 123.151 86.4653 123.705C85.6537 123.959 84.8103 124.092 83.9615 124.098C83.2132 124.079 82.4702 123.966 81.749 123.762C80.7622 123.537 79.781 123.264 78.7814 123.122C78.0763 123.023 77.3462 123.107 76.6271 123.114C76.5049 123.114 76.3838 123.15 76.2613 123.154C76.0329 123.131 75.8028 123.135 75.5755 123.167C74.5039 123.482 73.3581 123.515 72.3458 124.052C71.6659 124.412 70.9798 124.762 70.3043 125.132C69.48 125.584 68.6745 126.085 67.744 126.279C65.0661 126.835 62.5568 126.504 60.3201 124.777C59.6606 124.267 58.9993 123.756 58.3208 123.272C57.4901 122.677 56.564 122.234 55.5842 121.963C55.3807 121.897 55.1808 121.821 54.9853 121.733C54.9038 121.691 54.8188 121.655 54.7314 121.628C54.0859 121.5 53.441 121.37 52.7926 121.258C51.8948 121.129 50.9845 121.118 50.0841 121.227C49.3203 121.299 48.5579 121.39 47.7927 121.44C46.0428 121.555 44.466 120.992 42.9831 120.104C41.7898 119.409 40.8001 118.402 40.1171 117.187C39.7306 116.493 39.3356 115.805 38.9327 115.123C37.7444 113.061 35.8075 111.555 33.5423 110.932C32.9231 110.751 32.3058 110.563 31.6817 110.404C29.1317 109.755 27.3855 108.097 26.1172 105.831C25.5334 104.787 25.3567 103.628 25.1916 102.466C25.0331 101.352 24.9012 100.225 24.4636 99.1827C23.6224 97.178 22.5201 95.3547 20.7912 93.9973C20.3168 93.625 19.8566 93.2341 19.3736 92.8748C17.6528 91.5954 16.682 89.8311 16.1728 87.7669C15.8464 86.4253 15.8549 85.0216 16.1976 83.6841C16.4616 82.6886 16.6747 81.6799 16.8361 80.662C16.9194 79.9015 16.9265 79.1345 16.857 78.3725C16.8424 78.1461 16.7882 77.3666 16.7027 76.6709C16.6427 76.182 16.5911 75.6996 16.5301 75.2983C16.3916 73.9042 15.8 72.7544 15.1573 71.5359C14.8301 70.9169 14.503 70.2968 14.2003 69.6639C13.6231 68.3938 13.392 66.9884 13.5312 65.596C13.5786 64.9885 13.6692 64.3854 13.8021 63.7914C14.0293 62.7652 14.4764 61.8028 15.1113 60.9734C15.6156 60.3033 16.1274 59.639 16.6173 58.9574C17.2838 58.0008 17.8012 56.9448 18.1507 55.8269C18.3523 55.2211 18.4607 54.601 18.639 53.9954C19.0205 52.6995 18.9923 51.3711 18.8816 50.0408C18.8361 49.4957 18.7873 48.9509 18.7388 48.4059C18.5627 46.4031 19.1444 44.6077 20.1845 42.9404C20.8635 41.8156 21.8126 40.8853 22.9422 40.2378C23.6803 39.8214 24.4149 39.3978 25.1391 38.957C26.1198 38.3404 26.9915 37.5597 27.7178 36.6482C28.8163 35.3145 29.615 33.7519 30.058 32.0702C30.1932 31.5737 30.3642 31.0862 30.5017 30.5911C31.216 28.0006 34.3103 25.0345 37.6156 24.7573C38.455 24.6867 39.2878 24.5266 40.1225 24.41C41.7113 24.2098 43.157 23.3684 44.1332 22.0753C44.6101 21.4633 45.1028 20.8609 45.5374 20.2184C47.0475 17.9865 49.1945 16.8585 51.7596 16.4534C52.9019 16.2726 54.0168 16.4862 55.1318 16.7382C56.0739 16.9509 57.0252 17.1222 57.9783 17.2737C59.2796 17.4805 60.4786 17.1136 61.5985 16.4723C62.3734 16.0286 63.1334 15.5524 63.867 15.0415C66.2267 13.3977 68.7833 13.1671 71.4812 13.8895C72.1303 14.0839 72.7467 14.3774 73.3093 14.7602C74.0378 15.2241 74.7528 15.7108 75.486 16.1663C76.4422 16.7303 77.4762 17.1443 78.5534 17.3944C79.1486 17.5487 79.7494 17.6044 80.3434 17.7325C81.7546 18.0378 83.1517 17.8588 84.547 17.6013C85.4521 17.4333 86.3553 17.1995 87.2814 17.2573C90.0005 17.4265 92.3058 18.4665 93.9968 20.71C94.4914 21.3663 94.9177 22.0758 95.3807 22.7569C96.0955 23.7946 96.9733 24.7054 97.9785 25.4525C98.5073 25.8531 99.0763 26.1725 99.6135 26.5476C100.667 27.2861 101.869 27.6656 103.101 27.9569C103.534 28.0592 103.968 28.1621 104.403 28.2552C106.901 28.7902 108.686 30.3192 110.042 32.4492C110.665 33.4289 110.919 34.5348 111.143 35.6584C111.314 36.6107 111.533 37.5532 111.799 38.4825C112.043 39.1386 112.331 39.7766 112.663 40.3914C112.781 40.6441 112.913 40.8904 113.04 41.139C113.076 41.224 113.119 41.3056 113.169 41.3831C113.418 41.7172 113.687 42.0361 113.923 42.3796C114.602 43.329 115.43 44.1589 116.372 44.8364C116.791 45.153 117.21 45.4712 117.639 45.7724C119.426 47.0223 120.427 48.8009 120.996 50.8824C121.409 52.3896 121.294 53.8793 120.949 55.379C120.761 56.1993 120.632 57.035 120.504 57.8678C120.391 58.6903 120.418 59.5264 120.582 60.3398C120.598 60.3842 120.606 60.4305 120.607 60.4775C120.513 61.169 120.84 61.7862 120.944 62.4424C121.134 63.6313 121.643 64.7022 122.24 65.7304C122.576 66.309 122.916 66.885 123.254 67.4622C124.206 69.087 124.416 70.8618 124.261 72.7083L124.262 72.7088Z" fill="white"/>
<path d="M100.752 70.0323C100.743 52.0951 86.4544 37.6365 69.0511 37.5618C51.3227 37.486 37.0859 52.217 37.0567 69.9672C37.0275 87.7175 51.203 102.477 68.8959 102.484C86.4474 102.491 100.751 87.9186 100.752 70.0323ZM68.8252 99.8606C52.5964 99.822 39.6109 86.3274 39.6323 70.0016C39.6573 53.6457 52.8625 40.1975 68.9133 40.1814C85.3008 40.2097 98.2025 53.8528 98.1794 70.0685C98.1563 86.2494 85.2486 99.8997 68.8252 99.8606Z" fill="white"/>
<path d="M102.468 49.9765L100.865 50.5438C100.92 50.7339 100.954 50.8683 100.998 50.9998C101.246 51.7388 101.509 52.4729 101.741 53.2174C101.806 53.4749 102.017 53.6688 102.275 53.7082C104.578 54.3034 106.877 54.9168 109.176 55.5257C109.331 55.5667 109.485 55.6164 109.639 55.6622C109.641 55.6982 109.644 55.7342 109.646 55.77C108.886 56.0417 108.129 56.322 107.365 56.5822C106.588 56.8462 105.828 57.1689 105.018 57.3758L104.712 56.6035L103.096 57.1833L104.418 61.0624L106.041 60.4864L105.711 59.4304C107.744 58.6987 109.746 57.9905 111.768 57.2904C111.912 57.6677 112.033 57.9816 112.165 58.3267L113.78 57.7562C113.735 57.593 113.705 57.4584 113.661 57.3285C113.411 56.5901 113.136 55.8593 112.915 55.1122C112.843 54.8088 112.593 54.5815 112.289 54.5422C109.951 53.9583 107.618 53.3556 105.283 52.7578C105.151 52.7242 105.022 52.6791 104.892 52.6392L104.886 52.5286L109.575 50.8726C109.69 51.1438 109.785 51.3682 109.895 51.6288L111.513 51.0572L110.213 47.2412L108.594 47.8158C108.697 48.1724 108.785 48.4803 108.884 48.8238L102.831 50.9597L102.468 49.9765Z" fill="white"/>
<path d="M95.0547 39.9238L93.7209 40.9884C93.8057 41.1139 93.8691 41.2183 93.9426 41.3146C94.432 41.9566 94.9374 42.5866 95.4073 43.2425C95.5477 43.4674 95.8103 43.5821 96.0667 43.5305C96.7837 43.4585 97.5034 43.4105 98.222 43.3543C99.6283 43.2422 101.035 43.1304 102.441 43.0183C102.845 42.9869 103.251 42.9684 103.655 42.9437L103.696 43.0464L99.8405 46.1131C99.6337 45.8705 99.4667 45.6744 99.2828 45.4589L97.937 46.5319L100.42 49.7766L101.771 48.7012L101.126 47.7986C102.82 46.4455 104.485 45.1085 106.182 43.7822L106.878 44.6405L108.221 43.5679C108.128 43.4282 108.067 43.3234 107.994 43.2276C107.496 42.5726 106.99 41.9244 106.5 41.2635C106.374 41.0674 106.145 40.9663 105.919 41.0074C103.689 41.2107 101.458 41.3955 99.2263 41.5834C98.881 41.6127 98.5345 41.6273 98.19 41.6484C98.1732 41.6165 98.1568 41.5843 98.1405 41.5524C99.4446 40.5161 100.742 39.4702 102.071 38.4336L102.606 39.0456L103.955 37.9733C103.138 36.9061 102.34 35.8645 101.515 34.7881L100.157 35.8654C100.382 36.1774 100.568 36.4373 100.77 36.7174L95.7123 40.7379L95.0547 39.9238Z" fill="white"/>
<path d="M26.0501 57.3995C28.1031 58.1176 30.1189 58.7915 32.1265 59.5187L31.825 60.5123L33.4501 61.0722C33.9059 59.7078 34.3477 58.3842 34.8037 57.021C34.2412 56.8269 33.724 56.6476 33.1816 56.4599C33.049 56.8079 32.9299 57.1204 32.8008 57.4597L26.7244 55.3521C27.1579 53.9793 27.6012 52.6603 28.0654 51.3228L34.1553 53.4347C34.0484 53.7844 33.9546 54.0904 33.8468 54.4439L35.4777 55.0096C35.9358 53.631 36.3758 52.3072 36.8252 50.9536L35.2001 50.3899L34.8364 51.3959L28.7491 49.284C28.8608 48.9161 28.954 48.6091 29.06 48.2589L27.4368 47.7021C26.3089 51.083 25.1918 54.4319 24.0623 57.8173L25.6793 58.3787C25.8103 58.0336 25.9241 57.7333 26.0501 57.3995Z" fill="white"/>
<path d="M70.4899 31.4133C71.2396 31.4613 71.9898 31.5266 72.7401 31.5347C74.1427 31.5599 75.3702 30.5397 75.6281 29.1348C75.808 28.2321 75.6568 27.4248 74.9389 26.7921C74.8956 26.7451 74.8586 26.6923 74.829 26.6352C75.0614 26.4192 75.2772 26.1854 75.4743 25.9356C75.9204 25.2732 75.9467 24.521 75.7767 23.7725C75.4724 22.4319 74.4234 21.553 73.0018 21.4368C71.5802 21.3207 70.1572 21.2336 68.7346 21.1373C68.5697 21.126 68.4049 21.1356 68.2165 21.1356C68.1317 21.7059 68.0996 22.2831 68.1208 22.8593L69.0865 22.9932C68.952 25.187 68.825 27.329 68.6534 29.49H67.6458C67.6124 30.066 67.5801 30.6179 67.5469 31.1887C67.6969 31.2086 67.7852 31.2254 67.8743 31.2319C68.7459 31.2935 69.6178 31.3576 70.4899 31.4133ZM71.2238 23.112C71.7938 23.1485 72.3141 23.1497 72.8254 23.2229C73.4563 23.3129 73.8365 24.1416 73.592 24.8162C73.4639 25.2852 73.0173 25.5938 72.5425 25.542C72.1143 25.5235 71.6869 25.4834 71.2594 25.4506C71.1932 25.4362 71.1282 25.4162 71.0651 25.3913C71.1176 24.63 71.1692 23.8899 71.2238 23.112ZM70.9523 27.222C71.5748 27.2628 72.1214 27.2957 72.6673 27.3374C72.7585 27.3489 72.847 27.3773 72.9283 27.4207C73.3704 27.6355 73.5901 28.2249 73.462 28.8388C73.3939 29.3695 72.9391 29.7674 72.4139 29.7554C71.9259 29.7386 71.4391 29.6899 70.952 29.6512C70.896 29.634 70.8425 29.6092 70.7931 29.5776C70.8446 28.8184 70.8967 28.0495 70.9523 27.222Z" fill="white"/>
<path d="M86.2235 33.5985C85.8798 34.0785 85.5607 34.5412 85.2578 35.0442L88.7033 37.4564L89.671 36.0148L88.829 35.3776L90.7565 32.5199C90.8175 32.7273 90.8559 32.8254 90.8743 32.9279C91.1023 34.1718 91.3147 35.4189 91.5611 36.6587C91.6388 36.9616 91.5705 37.2846 91.3776 37.528C91.0929 37.91 90.8416 38.318 90.5516 38.7519L93.2163 40.6162C93.5809 40.0748 93.9229 39.5663 94.2693 39.0519C94.1784 38.9643 94.0788 38.8866 93.9721 38.8199C93.7224 38.69 93.5616 38.4311 93.5531 38.1457C93.3411 36.8992 93.1158 35.6545 92.9002 34.4085C92.8849 34.2709 92.8781 34.1327 92.88 33.9942C93.1 33.9582 93.279 33.9208 93.4601 33.9006C94.4359 33.7929 95.4149 33.7036 96.3874 33.5795C96.897 33.5145 97.3963 33.4115 97.8163 33.9174L98.8877 32.3239L96.1476 30.4082C95.8275 30.8781 95.531 31.2947 95.2562 31.726C95.1476 31.9142 94.9521 32.0339 94.738 32.0435C93.5489 32.1739 92.3625 32.3279 91.1746 32.4693C91.05 32.4722 90.9252 32.4664 90.8013 32.4522L92.4549 29.9959L93.3461 30.5635L94.3178 29.1235L90.8536 26.7021L89.8865 28.1462L90.6828 28.7556C90.2273 29.609 87.2864 33.9016 87.0087 34.1176L86.2235 33.5985Z" fill="white"/>
<path d="M31.4739 44.6744L36.587 48.2967L36.019 49.1902L37.4264 50.1876L41.9157 43.5995L39.039 41.5638L37.8614 43.2935C38.3537 43.6475 38.812 43.977 39.3082 44.3341C38.7979 45.0812 38.312 45.7916 37.8049 46.5344L35.8597 45.1515L36.9667 43.4809L35.4758 42.4273C35.0863 42.9858 34.7168 43.5147 34.3284 44.0718L32.6649 42.8915C33.183 42.1268 33.6513 41.4059 34.1692 40.7017C34.5875 40.9864 34.9511 41.2343 35.3355 41.4959L36.5048 39.7657L33.7704 37.835L29.2854 44.4195L30.8384 45.5218L31.4739 44.6744Z" fill="white"/>
<path d="M60.9512 32.2795C62.6602 32.2863 63.9423 31.6911 64.8154 30.643C66.7297 28.3477 66.3592 24.7371 64.016 22.857C62.1507 21.3126 59.3932 21.5142 57.7637 23.3144C56.2872 24.8984 55.9775 27.4904 57.0486 29.5186C57.9549 31.2339 59.3603 32.1828 60.9512 32.2795ZM58.9964 25.1156C59.4097 24.3387 60.2103 23.8532 61.0777 23.8532C61.6297 23.8532 62.1651 24.05 62.59 24.4095C63.8444 25.5147 64.2228 27.3507 63.5113 28.8769C63.1124 29.7099 62.2788 30.2403 61.3693 30.2403C60.747 30.2403 60.1488 29.9921 59.7037 29.5489C58.9745 28.8392 58.5687 27.8504 58.5849 26.823C58.571 26.2268 58.7131 25.6374 58.9964 25.1156Z" fill="white"/>
<path d="M79.0699 32.7921C80.7702 34.0974 83.1574 34.0069 84.7578 32.5761C84.9441 32.4049 85.0972 32.1966 85.2886 31.9797L83.5458 30.7766C83.4075 30.8946 83.3161 30.9772 83.2198 31.0535C81.7949 32.1858 79.9211 31.575 79.399 29.8089C79.2287 29.2375 79.2108 28.6298 79.3471 28.049C79.6013 26.9436 80.1646 26.0618 81.1946 25.5612C82.3272 25.0104 83.7947 25.446 84.2328 26.5505C84.4109 27.0616 84.8506 27.4339 85.3765 27.5184C85.4804 27.5436 85.5793 27.5892 85.6827 27.6208C85.9111 27.6914 86.14 27.7593 86.3994 27.8368C86.6302 27.1267 86.8447 26.4667 87.0675 25.7805C86.719 25.6605 86.4194 25.5437 86.112 25.4539C85.8438 25.3872 85.6144 25.2101 85.4787 24.965C85.2189 24.4999 84.835 24.1195 84.3717 23.8678C83.1616 23.1758 81.7059 23.082 80.4199 23.6129C78.3697 24.4289 77.0299 26.5972 77.1259 28.9291C77.1909 30.5176 77.8064 31.833 79.0699 32.7921Z" fill="white"/>
<path d="M43.9501 41.1822C46.0295 40.7353 47.7516 38.6283 47.4782 36.2142C47.4612 35.8199 47.3463 35.4364 47.144 35.0997L45.2763 35.9927C45.3045 36.1607 45.3234 36.268 45.3401 36.3752C45.3688 36.5255 45.3832 36.6779 45.3832 36.831C45.3832 38.1373 44.3283 39.2125 43.0461 39.2125C42.9138 39.2125 42.7816 39.201 42.6512 39.1782C41.0202 38.9533 39.6431 37.3252 39.66 35.6466C39.6754 34.1622 40.9041 32.9586 42.3568 33.2397C42.6523 33.3126 42.9646 33.215 43.1688 32.9853C43.4364 32.7282 43.7266 32.4966 44.0031 32.249C44.0909 32.1698 44.166 32.0752 44.2598 31.9737L42.8801 30.3506C42.5725 30.6167 42.3009 30.8431 42.0397 31.0811C41.8937 31.2184 41.7027 31.2955 41.5042 31.2971C40.9959 31.2895 40.4931 31.4059 40.0378 31.6365C39.2147 32.073 38.5451 32.7602 38.1223 33.6021C37.2038 35.5122 37.412 37.358 38.6327 39.0339C39.9488 40.8416 41.7385 41.6569 43.9501 41.1822Z" fill="white"/>
<path d="M48.0671 29.6899L47.532 28.4969L48.6726 27.9319C49.6286 29.9356 50.5632 31.895 51.51 33.8802L50.5985 34.3797C50.8642 34.9182 51.086 35.4385 51.3675 35.9385C52.0427 35.6025 52.6659 35.3015 53.2825 34.9869C53.8913 34.6761 54.5268 34.415 55.1196 34.0458L54.3694 32.4979L53.4182 32.943L50.5728 26.9794L51.8696 26.353L52.4537 27.515L54.3155 26.5879L53.0185 23.874L44.918 27.8928L46.2171 30.6064L48.0671 29.6899Z" fill="white"/>
<path d="M74.8175 112.186L75.8232 112.106V110.571C75.6409 110.571 75.521 110.567 75.4014 110.571C74.7579 110.599 74.1147 110.645 73.4715 110.65C73.2108 110.635 72.9628 110.771 72.8304 111C72.2416 111.877 71.6344 112.741 71.0313 113.607C70.9561 113.715 70.865 113.812 70.7651 113.933C70.6672 113.826 70.6019 113.76 70.5428 113.69C69.8379 112.844 69.1297 112.002 68.4332 111.149C68.3174 110.983 68.1228 110.893 67.9243 110.913C67.4497 110.941 66.9737 110.939 66.4989 110.962C66.1847 110.977 65.8717 111.014 65.5627 111.041C65.5627 111.353 65.5521 111.603 65.566 111.852C65.5794 112.093 65.6181 112.333 65.6458 112.574H66.603C66.6423 113.561 66.6805 114.518 66.7194 115.493L65.7189 115.579C65.7459 116.108 65.7707 116.597 65.7978 117.125L69.1794 116.971V115.457L68.4806 115.394C68.4502 114.791 68.4212 114.214 68.392 113.637L68.5034 113.593L70.8822 116.353C71.2675 115.816 71.6163 115.326 71.9679 114.839C72.3153 114.357 72.6439 113.859 73.0141 113.395L73.1163 113.436C73.1413 114.019 73.1663 114.603 73.1919 115.201L72.544 115.284C72.5735 115.797 72.6015 116.286 72.6319 116.822L75.9998 116.665V115.101H74.94C74.8995 114.114 74.8594 113.168 74.8175 112.186Z" fill="white"/>
<path d="M78.788 109.792C78.7174 109.86 78.6389 109.92 78.5337 110.01C78.3938 109.586 78.5005 109.117 78.8092 108.799C79.1486 108.434 79.5761 108.166 80.049 108.022C80.558 107.85 81.0728 107.697 81.5839 107.532C81.7831 107.468 81.9791 107.393 82.1908 107.319C82.0246 106.722 81.8708 106.169 81.6962 105.546C81.2151 105.682 80.7888 105.8 80.3644 105.925C80.3078 105.939 80.2593 105.976 80.2294 106.027C80.2765 106.367 79.9901 106.349 79.8144 106.416C79.232 106.615 78.6837 106.905 78.1893 107.276C77.194 108.078 76.7072 109.122 76.954 110.404C77.165 111.426 77.4319 112.436 77.7534 113.428C77.8848 113.811 78.0895 114.163 78.3556 114.465C79.6067 115.938 81.7537 115.602 82.8698 114.565C83.9193 113.591 84.1626 112.11 83.5135 110.696C83.0528 109.618 82.0038 108.917 80.8498 108.917C80.0759 108.917 79.3333 109.232 78.788 109.792ZM80.7598 113.843C79.9119 113.865 79.1444 113.064 79.1394 112.15C79.1477 111.289 79.8319 110.579 80.6767 110.555C81.5052 110.553 82.1522 111.315 82.1605 112.303C82.1614 112.325 82.1621 112.348 82.1621 112.37C82.1621 113.162 81.5356 113.819 80.7591 113.843L80.7598 113.843Z" fill="white"/>
<path d="M99.8544 102.724L98.0015 100.475L98.6252 99.8748L97.6539 98.7021L95.0187 100.965L95.9935 102.141L96.6605 101.621L97.1461 102.216L95.1312 103.944C94.9605 103.728 94.8123 103.542 94.6366 103.32L95.2469 102.791C94.908 102.379 94.599 102.003 94.2709 101.604L91.6328 103.866C91.9713 104.277 92.2821 104.654 92.6041 105.044L93.3121 104.496L95.1687 106.751L94.5201 107.367C94.8561 107.775 95.1597 108.142 95.4892 108.541L98.1271 106.279C97.7816 105.862 97.4711 105.487 97.1518 105.1C96.9141 105.287 96.7245 105.436 96.5034 105.61L95.8859 104.848L97.9054 103.119L98.5147 103.883L97.9064 104.462L98.8777 105.638L101.509 103.375L100.544 102.201L99.8544 102.724Z" fill="white"/>
<path d="M92.1018 108.838C91.6597 107.965 91.2282 107.113 90.7911 106.249L91.4002 105.863L90.6971 104.499C90.1149 104.806 89.5803 105.107 89.028 105.369C88.772 105.474 88.5934 105.716 88.565 105.996C88.3348 107.318 88.0833 108.636 87.8365 109.954C87.8016 110.085 87.7599 110.214 87.7114 110.341L86.7211 108.388L87.324 107.997C87.0932 107.543 86.8718 107.109 86.6337 106.639C85.6659 107.151 84.7462 107.638 83.7891 108.144L84.4827 109.502L85.1739 109.205L86.4928 111.805L85.8725 112.201C86.0972 112.684 86.3148 113.121 86.5691 113.554C87.1504 113.248 87.6721 112.948 88.2154 112.698C88.4999 112.581 88.6978 112.311 88.7277 112C88.9606 110.711 89.2162 109.425 89.4665 108.139C89.5023 108.015 89.5461 107.895 89.5975 107.777C89.9461 108.456 90.2708 109.045 90.5445 109.665L89.919 110.063L90.6149 111.422L93.4586 109.912C93.2083 109.427 92.989 109.003 92.7641 108.568L92.1018 108.838Z" fill="white"/>
<path d="M33.495 92.4486L34.8212 91.7613C33.7786 89.6685 32.7618 87.6271 31.7371 85.5693C31.2788 85.7762 30.8324 86.0097 30.4005 86.2689C30.5303 86.5569 30.636 86.7928 30.7618 87.0708C30.2743 87.2954 29.8383 87.5239 29.3828 87.7C28.6131 87.9976 28.0116 87.7939 27.5344 87.114C27.4388 86.9781 27.3505 86.8372 27.2391 86.6685L25.9138 87.3672C26.0846 87.7058 26.2179 87.9866 26.3653 88.2597C26.8601 89.2756 27.981 89.8199 29.067 89.5715C29.7754 89.4314 30.4601 89.1878 31.1 88.8479C31.2444 88.7759 31.3946 88.7164 31.5618 88.6423C31.8193 89.159 32.0701 89.6154 32.2825 90.1245L29.6829 91.4668L29.2773 90.6959C28.5272 90.9892 28.1451 91.2155 27.961 91.4742L29.5816 94.7346C30.0482 94.5356 30.5001 94.3031 30.9342 94.0386L30.4853 93.0532C31.3704 92.5926 32.2046 92.1465 33.072 91.7277L33.495 92.4486Z" fill="white"/>
<path d="M54.5157 109.522C54.3348 109.991 53.8772 110.121 53.5145 110.364C53.4554 110.38 53.3927 110.373 53.3388 110.344C53.1702 110.279 53.0051 110.205 52.807 110.122C53.1026 109.332 53.3854 108.579 53.6838 107.783L51.1991 106.796C51.0107 107.3 50.8387 107.758 50.659 108.236C50.8345 108.313 50.9598 108.366 51.083 108.423C51.217 108.484 51.3496 108.549 51.5102 108.625C51.1541 109.555 50.8161 110.437 50.4598 111.367L49.5763 111.049L49.0273 112.492L52.0934 113.707L52.6369 112.28L52.0891 111.992C52.1871 111.751 52.2775 111.527 52.3635 111.316C52.7399 111.311 53.0679 111.587 53.1355 111.964C53.3541 112.696 53.6151 113.414 53.872 114.133C53.9104 114.279 53.9975 114.407 54.1181 114.495C54.5447 114.697 54.9896 114.855 55.4632 115.044L56.0134 113.598C55.7988 113.51 55.6255 113.452 55.4639 113.369C55.3513 113.327 55.2543 113.25 55.1857 113.15C54.9458 112.598 54.7293 112.035 54.4926 111.446C55.0463 111.12 55.5437 110.815 56.056 110.538C56.1837 110.501 56.32 110.507 56.4439 110.556C56.6585 110.613 56.8655 110.7 57.0996 110.784C57.288 110.286 57.4578 109.841 57.6429 109.353L54.9914 108.3C54.8198 108.741 54.6664 109.132 54.5157 109.522Z" fill="white"/>
<path d="M113.757 73.518C113.358 73.5007 112.959 73.5135 112.56 73.5123C111.89 73.5096 111.787 73.4311 111.58 72.7704C111.487 72.4726 111.394 72.175 111.3 71.8776C111.276 71.8035 111.251 71.7298 111.224 71.6566C111.151 71.4245 110.936 71.2673 110.697 71.2726C110.458 71.2688 110.244 71.4307 110.178 71.6659C110.036 72.0785 109.91 72.4973 109.771 72.9111C109.606 73.4076 109.476 73.5055 108.973 73.511C108.544 73.5166 108.114 73.5046 107.684 73.5163C107.414 73.4832 107.157 73.6534 107.077 73.9183C106.997 74.177 107.073 74.3863 107.344 74.603C107.682 74.8733 108.027 75.1325 108.368 75.4008C108.787 75.7313 108.843 75.8981 108.694 76.4088C108.567 76.8429 108.418 77.2706 108.297 77.7064C108.186 77.9608 108.276 78.2625 108.507 78.4111C108.717 78.5577 109.002 78.5344 109.187 78.3556C109.446 78.1612 109.708 77.9702 109.968 77.776C110.662 77.2576 110.737 77.256 111.419 77.7542C111.681 77.9462 111.939 78.1423 112.206 78.3266C112.488 78.5222 112.712 78.5294 112.928 78.3672C113.144 78.2049 113.191 77.9949 113.097 77.6491C113.076 77.5737 113.051 77.4996 113.028 77.4254C112.92 77.0834 112.805 76.7433 112.704 76.3992C112.565 75.9278 112.628 75.7327 113.013 75.4241C113.363 75.1442 113.719 74.8721 114.073 74.5975C114.233 74.5018 114.339 74.3333 114.356 74.1451C114.357 74.1293 114.358 74.1134 114.358 74.0976C114.358 73.7791 114.101 73.517 113.788 73.517C113.778 73.517 113.767 73.5175 113.757 73.518Z" fill="white"/>
<path d="M27.5623 77.5854C27.8921 77.8129 28.21 78.0584 28.5369 78.2905C28.8857 78.5379 29.1052 78.561 29.332 78.3779C29.6121 78.152 29.5708 77.8676 29.4733 77.5688C29.3518 77.1987 29.2378 76.8263 29.1257 76.4528C28.9641 75.914 29.0167 75.7494 29.4529 75.4079C29.8061 75.1319 30.167 74.8679 30.5115 74.5818C30.8412 74.3077 30.8763 73.9381 30.5822 73.7053C30.4329 73.6017 30.2579 73.5433 30.0772 73.5373C29.6646 73.5133 29.2496 73.5328 28.8358 73.5277C28.3271 73.5215 28.2022 73.4279 28.0371 72.9299C27.8998 72.5159 27.7738 72.0981 27.6349 71.685C27.5649 71.4498 27.3506 71.2881 27.1094 71.2881C26.876 71.2881 26.6669 71.44 26.5906 71.6649C26.5522 71.7666 26.5199 71.8708 26.4858 71.9745C26.3708 72.3304 26.2571 72.6866 26.1414 73.0422C26.0698 73.3425 25.7943 73.5489 25.4916 73.5285C25.2618 73.5265 25.0316 73.5285 24.8018 73.5285V73.5309H24.1119C23.8434 73.503 23.5874 73.6602 23.4857 73.9149C23.3837 74.1709 23.4723 74.3949 23.7683 74.6348C24.0933 74.8955 24.4278 75.146 24.7551 75.4028C25.2125 75.7592 25.2599 75.9145 25.0837 76.4879C24.96 76.8901 24.8166 77.2868 24.7158 77.6948C24.6685 77.8712 24.6758 78.0582 24.7368 78.2303C24.8729 78.5471 25.2356 78.6128 25.5559 78.3937C25.925 78.1417 26.2752 77.8616 26.6393 77.6017C26.8937 77.3516 27.2995 77.3444 27.5623 77.5854Z" fill="white"/>
<path d="M108.542 90.674C107.648 90.1991 106.783 89.75 105.927 89.2278L106.422 88.3278L107.447 88.8361L108.246 87.3071L105.936 86.0459L102.514 92.5498C103.304 92.9818 104.045 93.4045 104.831 93.8055L105.627 92.2851L104.628 91.7096L105.105 90.8216C105.996 91.3093 106.863 91.7559 107.706 92.2594C107.558 92.5734 107.435 92.8354 107.303 93.1157L108.631 93.8389L110.394 90.4914L109.06 89.7678C108.877 90.0877 108.718 90.3656 108.542 90.674Z" fill="white"/>
<path d="M105.135 96.4618C104.897 96.2746 104.693 96.1147 104.489 95.9539C104.016 95.5808 103.562 95.1802 103.067 94.8399C102.201 94.2449 101.377 94.3008 100.567 94.9738C100.003 95.4389 99.5673 96.0456 99.3025 96.7339C99.0993 97.2017 98.9931 97.7071 98.9902 98.2186L100.117 98.465C100.175 98.2788 100.214 98.1458 100.258 98.0153C100.446 97.399 100.803 96.8503 101.288 96.4354C101.726 96.0799 102.091 96.1234 102.497 96.5439C102.276 96.7858 102.075 96.9999 101.879 97.219C101.45 97.6488 101.137 98.1838 100.97 98.772C100.776 99.4356 100.992 100.157 101.517 100.596C102.015 101.095 102.768 101.226 103.4 100.924C103.73 100.761 104.032 100.545 104.295 100.286C104.732 99.8736 104.997 99.3055 105.034 98.7C105.169 98.7017 105.302 98.671 105.422 98.61C105.902 98.0263 106.36 97.4244 106.845 96.8026L105.661 95.8404L105.135 96.4618ZM103.827 98.6698C103.719 98.8915 103.578 99.0948 103.408 99.2719C103.288 99.4166 103.111 99.5002 102.926 99.5002C102.58 99.5002 102.295 99.21 102.295 98.8572C102.295 98.7247 102.335 98.5954 102.41 98.4871C102.496 98.3412 102.595 98.203 102.704 98.0736C102.902 97.818 103.105 97.5655 103.307 97.3138C103.341 97.2891 103.378 97.2699 103.417 97.2562C104.114 97.7299 104.179 97.9313 103.826 98.67L103.827 98.6698Z" fill="white"/>
<path d="M33.9642 96.3013L36.713 99.8422C37.1934 99.4971 37.6068 99.0639 37.932 98.5649C38.1958 98.1591 38.3472 97.6882 38.3706 97.202C38.3974 95.9173 37.7916 94.9738 36.7485 94.3518C34.7124 93.1371 32.4665 94.6916 32.0343 96.5173C31.9535 96.8504 31.93 97.195 31.9649 97.5363C32.1337 99.0046 33.3617 100.382 34.841 100.775L35.3356 99.6207C35.1729 99.5064 35.028 99.4205 34.9013 99.3123C34.597 99.0524 34.2861 98.7975 34.0063 98.5112C33.7197 98.2212 33.5447 97.8358 33.5136 97.4257C33.4343 96.9939 33.6109 96.5528 33.9642 96.3013ZM36.5611 96.0094C37.0085 96.5854 36.9958 97.087 36.4774 97.6311L34.9289 95.6302C35.5222 95.2676 36.1006 95.4162 36.5611 96.0094Z" fill="white"/>
<path d="M60.8239 109.858C60.8216 109.858 60.8192 109.858 60.8169 109.858C59.0926 109.858 57.6738 111.304 57.6738 113.061C57.6738 113.084 57.6741 113.107 57.6745 113.13C57.6745 114.831 58.874 116.307 60.9419 116.322C63.0581 116.337 64.0654 114.57 64.0645 113.088C64.0774 111.276 62.6732 109.876 60.8239 109.858ZM60.8628 114.712C60.8522 114.713 60.8414 114.713 60.8308 114.713C60.0224 114.713 59.3573 114.035 59.3573 113.211C59.3573 113.196 59.3576 113.18 59.358 113.164C59.3507 112.184 59.9991 111.457 60.8753 111.462C60.9038 111.46 60.9323 111.459 60.961 111.459C61.7352 111.459 62.3725 112.108 62.3725 112.897C62.3725 112.931 62.3713 112.964 62.3689 112.998C62.3581 114.146 61.5618 114.774 60.8628 114.713V114.712Z" fill="white"/>
<path d="M46.1241 103.969C44.5132 103.93 42.9446 105.315 42.9182 107.276C42.8947 108.978 44.4541 110.473 46.1967 110.484C47.8887 110.495 49.3291 108.999 49.3378 107.22C49.3463 105.467 47.8863 104.01 46.1241 103.969ZM46.0683 108.849C45.264 108.847 44.6036 108.171 44.6036 107.352C44.6036 107.34 44.6039 107.328 44.6041 107.315C44.6041 106.393 45.3399 105.587 46.1866 105.58C47.0003 105.579 47.6741 106.252 47.6892 107.081C47.6845 108.005 46.9146 108.845 46.0683 108.85V108.849Z" fill="white"/>
<path d="M44.2179 102.801C44.0954 102.653 43.9633 102.515 43.8225 102.386C43.5542 102.177 43.3538 101.891 43.2473 101.565C43.049 101.054 42.7181 100.606 42.2902 100.272C41.3208 99.4388 40.2376 99.2214 39.0781 99.7381C37.9165 100.205 37.1353 101.338 37.0974 102.61C36.9754 104.614 38.8699 106.325 40.8238 106.015C41.1823 105.991 41.5235 105.849 41.7956 105.61C41.6571 105.387 41.5273 105.177 41.3952 104.967C41.2562 104.746 41.1149 104.526 40.9903 104.331C40.7056 104.383 40.4171 104.411 40.1276 104.414C39.3461 104.362 38.731 103.692 38.731 102.894C38.731 102.831 38.7347 102.769 38.7423 102.707C38.8516 101.801 39.7039 101.089 40.5442 101.203C41.2774 101.322 41.8516 101.92 41.9522 102.669C41.956 102.82 42.0014 102.967 42.0836 103.093C42.4051 103.422 42.7577 103.719 43.1199 104.048L44.2179 102.801Z" fill="white"/>
<path d="M114.961 52.9006C114.784 52.8572 114.618 52.7725 114.478 52.653C113.91 52.1367 113.821 51.2535 114.275 50.6307C114.32 50.57 114.36 50.5059 114.401 50.4452L113.897 48.9834C113.201 49.5188 112.727 50.1195 112.678 50.9783C112.617 51.9234 112.918 52.8565 113.517 53.5808C114.072 54.2725 114.819 54.5129 115.753 54.4448C115.606 54.0082 115.466 53.6466 115.365 53.2743C115.324 53.0746 115.16 52.9237 114.961 52.9006Z" fill="white"/>
<path d="M76.1924 71.8324C75.6307 71.5137 75.0525 71.2264 74.4601 70.9716C74.1704 70.8386 73.8595 70.7534 73.5289 70.6356C73.5475 70.3087 73.5708 69.9986 73.5814 69.6883C73.6033 69.0453 73.3108 68.7406 72.6852 68.7C72.303 68.6834 71.9228 68.6338 71.5488 68.551C69.8472 68.1348 68.44 67.1734 67.1408 66.0243C66.9178 65.827 66.8996 65.6681 67.0744 65.3621C67.4291 64.7415 67.7657 64.1055 68.171 63.5201C69.5841 61.5284 71.2198 59.7106 73.0451 58.1041C74.2069 57.0565 75.4097 56.0603 76.8134 55.3521C76.9223 55.2947 77.0216 55.2203 77.1078 55.1315C77.7294 54.5044 78.3561 53.8811 78.9621 53.2391C79.2174 52.996 79.3627 52.6554 79.3627 52.2993C79.3627 51.9705 79.2391 51.6539 79.0172 51.4151C78.3377 50.6711 77.6307 49.9511 76.9039 49.2568C76.4027 48.768 75.5977 48.7792 75.1099 49.2823C74.9957 49.3864 74.8904 49.5012 74.7818 49.6116C71.0606 53.4054 67.3394 57.2 63.6181 60.9951C63.4483 61.2178 63.1949 61.3589 62.9191 61.3841C62.531 61.4115 62.1683 61.5925 61.909 61.8881C60.8131 63.0053 59.7092 64.1148 58.6234 65.2416C58.2855 65.5656 58.0938 66.018 58.0938 66.4908C58.0938 66.9569 58.2803 67.4035 58.6098 67.7268C59.3097 68.4725 60.0349 69.1941 60.7561 69.9189C61.0955 70.2969 61.5974 70.4801 62.095 70.4076C62.5409 70.332 62.7439 70.5353 62.9165 70.9137C62.7517 70.9879 62.6 71.0577 62.4469 71.1232C61.7302 71.4057 61.0625 71.8027 60.4685 72.2992C59.7273 72.9059 59.3031 73.8302 59.3208 74.7988C59.3321 79.8349 59.3255 84.8708 59.3276 89.9069C59.3239 90.0787 59.3397 90.2506 59.3747 90.4186C59.4638 90.7673 59.7751 91.0126 60.1286 91.0126C60.3569 91.0126 60.5738 90.9106 60.7217 90.7337C60.8727 90.5534 60.9476 90.3194 60.9301 90.083C60.9266 89.3167 60.9266 88.5504 60.9301 87.7841C60.9301 87.6524 60.9518 87.5201 60.9671 87.3521C61.0663 87.3879 61.1635 87.4287 61.2587 87.4743C62.3096 88.0277 63.4328 88.4251 64.5941 88.6541C64.7138 88.6819 64.836 88.6973 64.9587 88.6999C64.9653 88.7002 64.9719 88.7002 64.9785 88.7002C65.4093 88.7002 65.7637 88.339 65.7637 87.9C65.7637 87.5669 65.5595 87.2672 65.2534 87.1505C65.0826 87.0843 64.8942 87.0677 64.7197 87.0108C63.9469 86.7586 63.1652 86.5289 62.4099 86.2311C62.0463 86.0648 61.7069 85.8485 61.4012 85.5879C61.0747 85.3402 60.8941 84.9389 60.9233 84.5252C60.9429 83.775 60.9268 83.024 60.9306 82.2731C60.9393 82.1514 60.9556 82.0302 60.9796 81.9107C61.4652 82.1528 61.8936 82.3959 62.344 82.586C64.3459 83.432 66.4479 83.7217 68.5992 83.7217C68.6606 83.7234 68.7219 83.7195 68.7826 83.7102C69.0782 83.6643 69.3225 83.4483 69.4087 83.1565C69.5019 82.8838 69.4341 82.5798 69.2341 82.3753C69.0634 82.1922 68.8222 82.094 68.5747 82.1067C67.8092 82.063 67.0419 82.0283 66.2802 81.9459C65.1179 81.8281 63.9794 81.5348 62.9019 81.0757C62.3734 80.8607 61.8842 80.5566 61.4546 80.1762C61.188 79.982 61.0079 79.6871 60.9546 79.3576C60.9209 78.6637 60.9445 77.9668 60.9445 77.1976C61.3449 77.4102 61.6713 77.6032 62.014 77.7621C62.3621 77.9238 62.7206 78.0633 63.083 78.1919C63.4302 78.3153 63.7832 78.4252 64.1398 78.5166C64.5112 78.6126 64.8885 78.6858 65.2658 78.7532C65.6431 78.8207 66.0228 78.8778 66.4036 78.9212C66.7845 78.9647 67.1672 78.9959 67.5497 79.016C67.9173 79.0357 68.2862 79.04 68.654 79.04C69.0377 79.04 69.4218 79.0352 69.8048 79.016C70.1878 78.9968 70.57 78.9644 70.9509 78.92C71.3317 78.8756 71.7106 78.8154 72.0875 78.746C72.4643 78.6767 72.8411 78.5994 73.2119 78.5036C73.5682 78.412 73.9224 78.3059 74.2689 78.1811C74.6297 78.0515 74.9856 77.9034 75.3337 77.7417C75.6721 77.5847 75.9983 77.4001 76.3375 77.2235C76.357 77.2737 76.3718 77.3255 76.3822 77.3783C76.3855 78.8171 76.3876 80.2559 76.3886 81.6947C76.3914 82.0127 76.2642 82.3182 76.0376 82.537C75.8097 82.7679 75.5602 82.9762 75.2934 83.1589C74.6928 83.5386 74.0407 83.8263 73.3581 84.013C73.0642 84.1011 72.7648 84.1714 72.4709 84.2593C72.1617 84.3296 71.9276 84.5921 71.8885 84.9125C71.8805 84.9586 71.8764 85.0054 71.8764 85.0525C71.8764 85.4919 72.2314 85.8538 72.6629 85.8538C72.7434 85.8538 72.8232 85.8411 72.9 85.8164C73.9834 85.5865 75.0256 85.1873 75.9891 84.6327C76.0982 84.5681 76.2164 84.5197 76.3914 84.4335V89.8613C76.3857 90.0175 76.3907 90.174 76.406 90.3295C76.4592 90.7224 76.7922 91.0183 77.1816 91.0183C77.5751 91.0183 77.9105 90.7159 77.9585 90.318C77.9736 90.1466 77.9781 89.9746 77.9722 89.8027V79.058C77.9722 77.5878 77.9621 76.1178 77.9762 74.6476C77.9944 73.919 77.7188 73.2136 77.2138 72.6974C76.9124 72.3645 76.5687 72.0736 76.1924 71.8324ZM71.8868 70.2941C71.8967 70.4167 71.8958 70.5398 71.884 70.6622C71.6598 71.8843 71.0632 73.0039 70.1793 73.8611C70.0003 74.0548 69.7473 74.1599 69.4864 74.1491C68.5382 74.1321 67.5893 74.1427 66.5942 74.1427C65.9896 72.3837 65.0433 70.7668 63.8122 69.3888L65.9877 67.1753C67.6825 68.6592 69.5629 69.8849 71.8868 70.2941ZM76.125 50.7189C76.495 51.1015 76.9039 51.5234 77.3118 51.9465C77.4077 52.0461 77.499 52.1498 77.614 52.275C77.533 52.377 77.4656 52.4757 77.3853 52.5616C76.6856 53.3478 75.8747 54.0237 74.9797 54.5668C73.7632 55.2707 72.7093 56.2189 71.6748 57.177C69.9565 58.7403 68.3983 60.4772 67.0238 62.3609C66.727 62.7752 66.4512 63.2052 66.1905 63.5916C65.7173 63.1116 65.2548 62.6437 64.8365 62.2201L76.125 50.7189ZM61.9231 68.8147C61.1765 68.0647 60.4231 67.3027 59.7238 66.5667C60.9014 65.3679 62.0343 64.2132 63.1836 63.043C63.9759 63.7282 64.7135 64.4768 65.3893 65.2815C65.2185 65.5966 62.3456 68.5416 61.9231 68.8157V68.8147ZM76.2032 75.0666C75.9769 75.3604 75.7107 75.6198 75.4128 75.8373C74.6443 76.3586 73.7846 76.7238 72.8805 76.9137C69.7085 77.6649 66.5565 77.6409 63.4401 76.6055C62.7936 76.401 62.1876 76.0818 61.6501 75.6626C60.7104 74.9104 60.6972 74.2053 61.6216 73.4507C62.2832 72.9386 63.038 72.5656 63.8423 72.3535C63.8984 72.3482 63.9549 72.3506 64.0103 72.3609C64.3598 72.8942 64.6419 73.4702 64.8501 74.0752C64.7011 74.1153 64.5857 74.1383 64.4754 74.1772C64.1306 74.296 63.9029 74.6354 63.9189 75.0059C63.9561 75.3928 64.2588 75.7022 64.6384 75.741C64.776 75.7528 64.9142 75.7564 65.0522 75.7523H72.279C72.417 75.7569 72.555 75.7526 72.6925 75.7398C73.0847 75.6906 73.3826 75.3474 73.3826 74.945C73.3826 74.5377 73.0778 74.1921 72.6805 74.1487C72.5197 74.1292 72.3572 74.1247 72.1593 74.111L73.1579 72.245C74.1471 72.5445 75.1047 72.9011 75.8876 73.6223C76.0115 73.739 76.1205 73.8712 76.2119 74.0157C76.4484 74.3248 76.4446 74.7626 76.2032 75.0676V75.0666Z" fill="white"/>
<path d="M79.0041 68.4909C78.5936 68.4482 78.1797 68.4496 77.7697 68.4957C77.3728 68.5449 77.0737 68.8965 77.0822 69.3038C77.1029 69.7269 77.4381 70.0694 77.8531 70.0917C78.0356 70.1068 78.2205 70.0943 78.4044 70.0943C78.5728 70.0943 78.7417 70.1032 78.9096 70.0926C79.3234 70.0833 79.6675 69.753 79.7017 69.3328C79.7309 68.9087 79.4193 68.5327 79.0041 68.4909Z" fill="white"/>
<path d="M73.0615 62.4785C72.6444 62.4417 72.2716 62.7607 72.2348 63.1857C72.1896 63.588 72.1875 63.9943 72.2282 64.397C72.2544 64.8088 72.594 65.1333 72.9989 65.1333C73.0257 65.1333 73.0526 65.1319 73.0794 65.129C73.4928 65.0925 73.8131 64.7337 73.8095 64.3108C73.8192 64.1397 73.8112 63.9679 73.8112 63.7963C73.8112 63.6247 73.8199 63.4526 73.8093 63.2817C73.8006 62.8598 73.4746 62.5094 73.0615 62.4785Z" fill="white"/>
<path d="M77.125 64.2339C77.0287 64.2423 76.9354 64.2725 76.8521 64.3225C76.463 64.6688 76.0982 65.0422 75.7597 65.4399C75.5423 65.7149 75.6551 66.1272 75.9107 66.374C76.1625 66.6488 76.5824 66.6855 76.8763 66.4582C77.2169 66.1685 77.533 65.8503 77.8208 65.5064C78.0155 65.2702 78.0353 64.9294 77.8695 64.6712C77.724 64.393 77.4343 64.2229 77.125 64.2339Z" fill="white"/>
<path d="M97.1621 69.5459C97.1614 69.5459 97.1607 69.5459 97.16 69.5459C96.9414 69.5459 96.7617 69.729 96.7617 69.9517C96.7617 69.9717 96.7631 69.9913 96.766 70.011C96.766 70.012 96.766 70.0132 96.766 70.0141C96.766 70.2316 96.9414 70.4101 97.1546 70.4101C97.1628 70.4101 97.1713 70.4099 97.1795 70.4094C97.3908 70.3957 97.5576 70.2148 97.5576 69.999C97.5576 69.9889 97.5571 69.9786 97.5564 69.9683C97.5566 69.963 97.5566 69.9577 97.5566 69.9525C97.5566 69.7312 97.3793 69.5483 97.1621 69.5459Z" fill="white"/>
<path d="M40.9628 66.0558C41.1835 66.0558 41.367 65.8746 41.3736 65.6497C41.3512 65.445 41.1922 65.2816 40.9916 65.2568C40.9911 65.2568 40.9904 65.2568 40.9899 65.2568C40.7695 65.2568 40.5881 65.4416 40.5881 65.6663V65.6665C40.5957 65.8743 40.7591 66.044 40.9628 66.0558Z" fill="white"/>
<path d="M50.1463 91.1396C49.9261 91.1392 49.7429 91.3189 49.7346 91.5431C49.7584 91.7471 49.9155 91.9103 50.115 91.9386C50.3352 91.9362 50.5156 91.7516 50.5173 91.5272C50.5147 91.3192 50.3503 91.1476 50.1463 91.1396Z" fill="white"/>
<path d="M41.3777 74.442C41.3714 74.227 41.1962 74.0537 40.9851 74.0537C40.7694 74.0537 40.592 74.2344 40.592 74.454C40.592 74.4581 40.5923 74.4619 40.5923 74.466C40.5986 74.6811 40.7739 74.8543 40.9851 74.8543C41.2006 74.8543 41.378 74.6736 41.378 74.454C41.378 74.4499 41.3777 74.4461 41.3777 74.442Z" fill="white"/>
<path d="M89.2684 89.5771C89.0496 89.5937 88.8765 89.7787 88.8711 90.0024C88.8885 90.2103 89.0612 90.372 89.2658 90.3725C89.4707 90.3759 89.6441 90.2117 89.6558 90.0034C89.6639 89.7783 89.4891 89.5863 89.2684 89.5771Z" fill="white"/>
<path d="M90.7174 87.9367C90.5132 87.9307 90.3375 88.0896 90.3189 88.2967C90.3078 88.5208 90.4762 88.7157 90.6957 88.733C90.8983 88.7232 91.0678 88.5693 91.101 88.3656C91.1072 88.1421 90.9364 87.9511 90.7174 87.9367Z" fill="white"/>
<path d="M53.5126 46.2694C53.7156 46.2562 53.8804 46.092 53.8981 45.8854C53.8925 45.6615 53.7158 45.4779 53.4963 45.4678C53.2938 45.4834 53.131 45.649 53.1155 45.8554C53.1155 45.8592 53.1152 45.8628 53.1152 45.8666C53.1152 46.0877 53.2938 46.2694 53.5104 46.2694C53.5111 46.2694 53.5119 46.2694 53.5126 46.2694Z" fill="white"/>
<path d="M57.334 95.9295C57.1303 95.9453 56.973 96.1251 56.9807 96.3332C56.9932 96.54 57.1557 96.7076 57.3588 96.7224C57.5773 96.7112 57.754 96.5302 57.7636 96.3072C57.7448 96.0848 57.5528 95.9158 57.334 95.9295Z" fill="white"/>
<path d="M82.4003 94.9209C82.1916 94.9305 82.0251 95.1081 82.0251 95.3207C82.0251 95.5274 82.182 95.7016 82.3838 95.7196C82.6045 95.7283 82.7946 95.5545 82.8104 95.3301C82.8002 95.1064 82.6201 94.9267 82.4003 94.9209Z" fill="white"/>
<path d="M63.569 97.898C63.3646 97.8868 63.1842 98.0396 63.1576 98.2465C63.1555 98.2636 63.1543 98.2808 63.1543 98.2979C63.1543 98.5177 63.3319 98.6984 63.5474 98.6984C63.7631 98.6984 63.9405 98.5177 63.9405 98.2979C63.9405 98.0864 63.7763 97.9096 63.569 97.898Z" fill="white"/>
<path d="M59.3079 43.3394C59.508 43.3142 59.6682 43.1551 59.6979 42.9518C59.696 42.7272 59.5165 42.5424 59.2963 42.5381C59.0858 42.5414 58.9141 42.7188 58.9141 42.9336C58.9141 42.9434 58.9145 42.953 58.9152 42.9629C58.9386 43.1681 59.1053 43.3279 59.3079 43.3394Z" fill="white"/>
<path d="M69.9089 41.6422C70.1291 41.64 70.309 41.455 70.3093 41.2306C70.3032 41.0158 70.1282 40.8428 69.9174 40.8428C69.9082 40.8428 69.8992 40.843 69.89 40.8437C69.6887 40.8697 69.5342 41.0422 69.5273 41.2488C69.5495 41.4536 69.7082 41.6172 69.9089 41.6422Z" fill="white"/>
<path d="M43.6125 82.421C43.3907 82.4171 43.2029 82.5954 43.1914 82.8213C43.2044 83.0298 43.3645 83.2 43.5682 83.2221C43.573 83.2223 43.5777 83.2223 43.5824 83.2223C43.7983 83.2223 43.9762 83.0411 43.9762 82.821C43.9762 82.6125 43.8165 82.437 43.6125 82.421Z" fill="white"/>
<path d="M70.0112 98.3818C69.8079 98.3941 69.6405 98.5539 69.6153 98.7598C69.612 98.9842 69.7879 99.1726 70.0079 99.1808C70.2123 99.1808 70.3843 99.0183 70.4 98.8107C70.404 98.5861 70.2312 98.3955 70.0112 98.3818Z" fill="white"/>
<path d="M74.2412 42.1368C74.4442 42.1174 74.6051 41.9484 74.618 41.741C74.6105 41.5152 74.4256 41.334 74.204 41.335C74 41.3508 73.8389 41.5234 73.834 41.7319C73.834 41.7326 73.834 41.7331 73.834 41.7338C73.834 41.9549 74.0125 42.137 74.2297 42.137C74.2334 42.137 74.2374 42.1368 74.2412 42.1368Z" fill="white"/>
<path d="M95.1333 80.3896C94.9134 80.3952 94.7351 80.5807 94.7344 80.8048C94.7358 81.0134 94.9011 81.1855 95.1056 81.1917C95.326 81.1932 95.5095 81.0115 95.5142 80.7868C95.4906 80.5824 95.3335 80.4184 95.1333 80.3896Z" fill="white"/>
<path d="M96.6797 67.7162C96.6844 67.925 96.8469 68.0978 97.0513 68.1112C97.272 68.1134 97.4579 67.9358 97.4694 67.7111C97.456 67.5038 97.297 67.3343 97.0942 67.3115C96.8733 67.3115 96.6891 67.4913 96.6797 67.7162Z" fill="white"/>
<path d="M84.3382 93.7936C84.3165 93.79 84.2948 93.7881 84.2729 93.7881C84.0567 93.7881 83.8789 93.9693 83.8789 94.1896C83.8789 94.385 84.0188 94.5532 84.2077 94.5856C84.2294 94.5892 84.251 94.5911 84.2729 94.5911C84.4891 94.5911 84.667 94.4099 84.667 94.1896C84.667 93.9942 84.5271 93.826 84.3382 93.7936Z" fill="white"/>
<path d="M97.075 71.8193C96.8724 71.833 96.7066 71.9931 96.6821 72.1983C96.6816 72.2053 96.6816 72.2124 96.6816 72.2194C96.6816 72.4388 96.8588 72.6195 97.0743 72.6195C97.2895 72.6195 97.4669 72.4388 97.4669 72.2194C97.4669 72.0003 97.29 71.8198 97.075 71.8193Z" fill="white"/>
<path d="M92.0219 86.1787C92.0209 86.1787 92.02 86.1787 92.019 86.1787C91.8028 86.1787 91.625 86.3599 91.625 86.5802C91.625 86.7993 91.8012 86.9801 92.0162 86.9817C92.2202 86.9748 92.3895 86.814 92.4107 86.6073C92.4138 86.3832 92.2414 86.1934 92.0219 86.1787Z" fill="white"/>
<path d="M55.4245 94.9287C55.2177 94.94 55.0505 95.1104 55.0392 95.3211C55.0342 95.5328 55.197 95.713 55.4045 95.7257C55.408 95.7257 55.4115 95.726 55.4151 95.726C55.6357 95.726 55.8178 95.5426 55.8206 95.3177C55.7957 95.1097 55.6294 94.9465 55.4245 94.9287Z" fill="white"/>
<path d="M78.4746 96.7178C78.2718 96.7295 78.1048 96.8891 78.0803 97.0946C78.0801 97.0987 78.0801 97.1025 78.0801 97.1066C78.0801 97.3267 78.2579 97.5076 78.4736 97.5076C78.675 97.5076 78.8453 97.3504 78.8653 97.1464C78.8653 96.9225 78.6936 96.7343 78.4746 96.7178Z" fill="white"/>
<path d="M74.3098 97.8975C74.3079 97.8975 74.306 97.8975 74.3042 97.8975C74.0912 97.8975 73.916 98.076 73.916 98.293C73.916 98.2985 73.916 98.3038 73.9163 98.3093C73.9306 98.5157 74.0936 98.6815 74.2962 98.6957C74.5152 98.6834 74.6904 98.4998 74.6965 98.2764C74.6796 98.07 74.5131 97.9066 74.3098 97.8975Z" fill="white"/>
<path d="M63.4732 42.1351C63.6776 42.1322 63.8474 41.9676 63.8604 41.7598C63.8611 41.5344 63.6852 41.3458 63.4642 41.335C63.2617 41.353 63.0978 41.515 63.0742 41.7209C63.0742 41.723 63.0742 41.725 63.0742 41.7271C63.0742 41.9503 63.2542 42.1344 63.4732 42.1351Z" fill="white"/>
<path d="M80.3979 44.1052C80.6179 44.098 80.7955 43.9122 80.7969 43.6878C80.7922 43.4713 80.616 43.2959 80.4033 43.2959C80.1876 43.2959 80.0098 43.4769 80.0098 43.6969C80.0098 43.7056 80.0102 43.7145 80.0107 43.7231C80.0279 43.9302 80.1942 44.0941 80.3979 44.1052Z" fill="white"/>
<path d="M55.3204 45.1161C55.3315 45.1171 55.3423 45.1176 55.3534 45.1176C55.5628 45.1176 55.7385 44.9503 55.7528 44.7374C55.7531 44.7314 55.7533 44.7254 55.7533 44.7192C55.7533 44.4998 55.5762 44.3193 55.3609 44.3193C55.1523 44.3193 54.9782 44.4888 54.9688 44.7012C54.9662 44.9092 55.1181 45.0883 55.3204 45.1161Z" fill="white"/>
<path d="M51.7458 47.5529C51.9479 47.5361 52.112 47.376 52.1375 47.1711C52.1389 46.9467 51.9601 46.7604 51.7399 46.7568C51.5357 46.7554 51.3652 46.922 51.3577 47.1298C51.3574 47.1344 51.3574 47.1392 51.3574 47.1437C51.3574 47.3631 51.5305 47.5455 51.7458 47.5529Z" fill="white"/>
<path d="M44.5883 55.7471C44.8031 55.7452 44.9788 55.5645 44.9788 55.3456C44.9788 55.1303 44.809 54.9515 44.598 54.9443C44.5963 54.9443 44.5947 54.9443 44.593 54.9443C44.377 54.9443 44.1992 55.1255 44.1992 55.3456C44.1992 55.564 44.374 55.7445 44.5883 55.7471Z" fill="white"/>
<path d="M43.5469 57.6843C43.7666 57.6788 43.9468 57.4988 43.9569 57.2751C43.9496 57.0615 43.7754 56.8896 43.5655 56.8896C43.3507 56.8896 43.1738 57.0699 43.1738 57.2888C43.1738 57.2892 43.1738 57.2897 43.1738 57.2902C43.1825 57.4978 43.3436 57.668 43.5469 57.6843Z" fill="white"/>
<path d="M42.6839 59.6881C42.8872 59.6824 43.0535 59.5146 43.0608 59.3075C43.0636 59.0831 42.8862 58.8954 42.6663 58.8896C42.4654 58.9136 42.3052 59.0749 42.2793 59.2794C42.2812 59.5043 42.4632 59.6881 42.6839 59.6881Z" fill="white"/>
<path d="M41.3388 63.9007C41.3499 63.9017 41.3612 63.9022 41.3723 63.9022C41.5814 63.9022 41.7562 63.7327 41.7665 63.5199C41.7665 63.516 41.7668 63.5124 41.7668 63.5086C41.7668 63.2871 41.5897 63.1039 41.3723 63.1006C41.1688 63.115 41.0039 63.2789 40.9844 63.4858C40.9856 63.6934 41.137 63.871 41.3388 63.9007Z" fill="white"/>
<path d="M96.4219 65.5332C96.4355 65.7557 96.6148 65.9333 96.8333 65.9412C97.0528 65.9244 97.2203 65.7276 97.2059 65.5039C97.1864 65.2971 97.0095 65.1394 96.8055 65.1478C96.6035 65.1639 96.4405 65.3275 96.4219 65.5332Z" fill="white"/>
<path d="M96.0217 63.3713C96.0224 63.5936 96.2021 63.7762 96.4202 63.7762C96.4254 63.7762 96.4308 63.7762 96.436 63.776C96.6407 63.7462 96.794 63.565 96.7931 63.3543C96.7789 63.1433 96.602 62.9787 96.3945 62.9835C96.3922 62.9835 96.3898 62.9835 96.3875 62.9835C96.1866 62.9835 96.0215 63.1517 96.0215 63.3565C96.0215 63.3613 96.0215 63.3663 96.0217 63.3713Z" fill="white"/>
<path d="M93.2198 84.3506C93.0123 84.3475 92.8349 84.5095 92.8154 84.72C92.8147 84.7301 92.8142 84.7401 92.8142 84.7505C92.8142 84.9689 92.9906 85.1486 93.2049 85.1486C93.4171 85.1486 93.5926 84.9722 93.5957 84.756C93.5858 84.5457 93.4251 84.3725 93.2198 84.3506Z" fill="white"/>
<path d="M57.306 44.1396C57.5076 44.1273 57.6668 43.955 57.6668 43.7494C57.6668 43.5348 57.4937 43.3584 57.2831 43.3584C57.0827 43.3584 56.9143 43.5185 56.9004 43.7222C56.9004 43.7232 56.9004 43.7239 56.9004 43.7249C56.9004 43.9519 57.0832 44.1389 57.306 44.1396Z" fill="white"/>
<path d="M93.1779 55.6122C93.3814 55.5958 93.5404 55.4204 93.5404 55.2123C93.5404 54.997 93.3701 54.818 93.1588 54.8115C92.9468 54.8168 92.7754 54.9958 92.7754 55.2118C92.7754 55.4314 92.9527 55.6122 93.1682 55.6122C93.1715 55.6122 93.1748 55.6122 93.1779 55.6122Z" fill="white"/>
<path d="M45.7731 53.8653C45.9809 53.8598 46.1509 53.6887 46.1589 53.477C46.1504 53.255 45.9691 53.0771 45.751 53.0771C45.7458 53.0771 45.7404 53.0771 45.735 53.0774C45.5279 53.0968 45.3697 53.2799 45.3772 53.4919C45.3897 53.7031 45.5656 53.8689 45.7731 53.8653Z" fill="white"/>
<path d="M48.5073 50.4793C48.7117 50.482 48.8867 50.3233 48.9077 50.116C48.9185 49.8918 48.7503 49.6967 48.5308 49.6787C48.5292 49.6787 48.5275 49.6787 48.5259 49.6787C48.3102 49.6787 48.1328 49.8594 48.1328 50.0793C48.1328 50.2919 48.2989 50.4693 48.5073 50.4793Z" fill="white"/>
<path d="M47.1448 87.9678C47.1444 87.9678 47.1439 87.9678 47.1434 87.9678C46.9256 87.9678 46.7461 88.1506 46.7461 88.3726C46.7461 88.377 46.7461 88.381 46.7463 88.3854C46.7555 88.5954 46.9263 88.7638 47.1326 88.766C47.3384 88.753 47.5038 88.5831 47.5148 88.3734C47.5087 88.1638 47.3495 87.9894 47.1448 87.9678Z" fill="white"/>
<path d="M85.9592 47.4696C85.9655 47.4699 85.9719 47.4701 85.9783 47.4701C86.1935 47.4701 86.3704 47.2896 86.3704 47.0705C86.3704 46.8516 86.1942 46.6714 85.9794 46.6709C85.7684 46.6769 85.5979 46.8557 85.5979 47.0707C85.5979 47.2783 85.7562 47.4531 85.9592 47.4696Z" fill="white"/>
<path d="M51.8187 92.5542C51.8124 92.554 51.8063 92.5537 51.7999 92.5537C51.5823 92.5537 51.4028 92.7359 51.4021 92.9576C51.42 93.1671 51.5863 93.3342 51.7921 93.3495C51.9989 93.3407 52.1673 93.1715 52.1793 92.961C52.188 92.7493 52.0265 92.5667 51.8187 92.5542Z" fill="white"/>
<path d="M82.376 45.0776C82.5814 45.0589 82.7401 44.881 82.7394 44.671C82.727 44.4615 82.5546 44.2959 82.3485 44.2959C82.1386 44.2959 81.9643 44.4677 81.957 44.6813C81.961 44.9002 82.1389 45.0783 82.3539 45.0783C82.3612 45.0783 82.3687 45.0781 82.376 45.0776Z" fill="white"/>
<path d="M61.4624 97.4214C61.256 97.4106 61.074 97.5649 61.0471 97.7737C61.0391 98.0015 61.2155 98.1959 61.439 98.2057C61.6446 98.1949 61.8131 98.0305 61.8328 97.8217C61.8319 97.611 61.6689 97.4346 61.4624 97.4214Z" fill="white"/>
<path d="M40.6374 70.4574C40.6381 70.4574 40.6388 70.4574 40.6395 70.4574C40.8554 70.4574 41.0335 70.2762 41.0335 70.0559C41.0335 69.8461 40.8719 69.6697 40.6666 69.6553C40.4628 69.6529 40.2883 69.8091 40.2643 70.0153C40.2523 70.2395 40.4181 70.436 40.6374 70.4574Z" fill="white"/>
<path d="M76.3538 42.6075C76.5596 42.5897 76.7219 42.416 76.729 42.2055C76.7085 41.9965 76.5405 41.8318 76.3347 41.8193C76.1215 41.8215 75.9473 42.001 75.9473 42.2182C75.9473 42.2285 75.9477 42.2386 75.9484 42.2489C75.9645 42.4599 76.1465 42.6209 76.3538 42.6075Z" fill="white"/>
<path d="M65.6339 41.8114C65.8414 41.7944 66.0009 41.611 65.9926 41.3991C65.9853 41.1872 65.8099 41.018 65.6017 41.0226C65.3956 41.0324 65.2272 41.1987 65.2109 41.4082C65.222 41.6355 65.4107 41.8155 65.6339 41.8114Z" fill="white"/>
<path d="M67.7723 41.6427C67.9739 41.6237 68.1362 41.4615 68.1586 41.2563C68.1597 41.0312 67.9791 40.8447 67.7582 40.8428C67.554 40.8452 67.386 41.0146 67.3813 41.2227C67.3811 41.2287 67.3809 41.2349 67.3809 41.2409C67.3809 41.4603 67.557 41.641 67.7723 41.6427Z" fill="white"/>
<path d="M95.8449 61.6585C96.0493 61.6432 96.2093 61.4675 96.2093 61.259C96.2093 61.0454 96.0421 60.8675 95.8327 60.8584C95.6167 60.8663 95.4434 61.0494 95.4434 61.2698C95.4434 61.2767 95.4436 61.2834 95.4438 61.2904C95.462 61.5001 95.6384 61.6619 95.8449 61.6585Z" fill="white"/>
<path d="M95.8453 78.2959C95.6408 78.3024 95.4741 78.4716 95.4673 78.6799C95.4604 78.8873 95.6109 79.0685 95.8128 79.0956C96.0332 79.1107 96.2271 78.9391 96.2431 78.7145C96.2431 78.4898 96.0657 78.3031 95.8453 78.2959Z" fill="white"/>
<path d="M95.0605 59.5854C95.0671 59.5856 95.0735 59.5858 95.0801 59.5858C95.2956 59.5858 95.4727 59.4054 95.4727 59.1858C95.4727 59.1848 95.4727 59.1805 95.4727 59.1793C95.4727 58.9647 95.2993 58.7881 95.0888 58.7881C94.8832 58.7881 94.712 58.9566 94.7051 59.1661C94.7018 59.3766 94.8556 59.558 95.0605 59.5854Z" fill="white"/>
<path d="M87.6813 48.8676C87.8855 48.8398 88.0383 48.6583 88.0346 48.4486C88.0296 48.2369 87.856 48.0665 87.6483 48.0694C87.4425 48.0766 87.2757 48.2489 87.2715 48.4589C87.2715 48.461 87.2715 48.463 87.2715 48.4651C87.2715 48.6862 87.4498 48.8678 87.6667 48.8678C87.6716 48.8678 87.6763 48.8678 87.6813 48.8676Z" fill="white"/>
<path d="M91.9714 53.7747C92.1784 53.7802 92.3538 53.6124 92.3611 53.4015C92.3619 53.3919 92.3621 53.3823 92.3621 53.3727C92.3621 53.1591 92.1899 52.9834 91.9803 52.9834C91.7815 52.9834 91.6143 53.1416 91.5995 53.3436C91.5971 53.3614 91.5957 53.3792 91.5957 53.3969C91.5957 53.6043 91.7632 53.7747 91.9664 53.7747C91.9681 53.7747 91.9697 53.7747 91.9714 53.7747Z" fill="white"/>
<path d="M47.0649 52.132C47.0656 52.132 47.0663 52.132 47.067 52.132C47.2773 52.132 47.4505 51.9556 47.4505 51.7413C47.4505 51.527 47.2773 51.3506 47.067 51.3506C46.8581 51.3506 46.6857 51.5243 46.6836 51.7372C46.6933 51.9475 46.8586 52.1188 47.0649 52.132Z" fill="white"/>
<path d="M89.2058 50.3896C89.4138 50.396 89.5902 50.2276 89.5972 50.0157C89.6041 49.8049 89.451 49.6211 89.2458 49.5933C89.2397 49.593 89.2336 49.5928 89.2275 49.5928C89.0105 49.5928 88.832 49.7747 88.832 49.9957C88.832 49.9964 88.832 49.9972 88.832 49.9979C88.832 50.0005 88.832 50.0029 88.832 50.0056C88.832 50.2151 89.0002 50.3879 89.2058 50.3896Z" fill="white"/>
<path d="M90.6664 52.0212C90.8737 52.0214 91.0444 51.8484 91.0451 51.6372C91.0454 51.6307 91.0456 51.6245 91.0456 51.618C91.0456 51.4128 90.8803 51.2436 90.6789 51.2427C90.6681 51.2417 90.6572 51.2412 90.6466 51.2412C90.4366 51.2412 90.2637 51.4174 90.2637 51.6314C90.2637 51.8455 90.4366 52.0217 90.6466 52.0217C90.6532 52.0217 90.6598 52.0214 90.6664 52.0212Z" fill="white"/>
<path d="M94.2386 82.4053C94.0314 82.4034 93.8562 82.568 93.8416 82.7787C93.8418 83.0014 94.0215 83.1846 94.2401 83.1846C94.2443 83.1846 94.2488 83.1846 94.253 83.1843C94.4605 83.1776 94.6268 82.9995 94.6228 82.7879C94.6157 82.5774 94.4452 82.4077 94.2386 82.4053Z" fill="white"/>
<path d="M78.4199 43.2549C78.6231 43.2457 78.7856 43.0729 78.7856 42.8656C78.7856 42.6517 78.613 42.4756 78.4032 42.4756C78.3975 42.4756 78.3921 42.4758 78.3864 42.4761C78.1808 42.4849 78.0124 42.652 77.9983 42.8613C78.0002 43.0785 78.1759 43.2561 78.389 43.2561C78.3994 43.2561 78.4095 43.2556 78.4199 43.2549Z" fill="white"/>
<path d="M61.3483 42.6584C61.5693 42.6584 61.7508 42.4734 61.7508 42.2483V42.2478C61.7461 42.0402 61.5796 41.8708 61.3759 41.8664C61.371 41.8662 61.3658 41.8662 61.3608 41.8662C61.1451 41.8662 60.9675 42.0467 60.9668 42.2665C60.9889 42.471 61.1479 42.6342 61.3483 42.6584Z" fill="white"/>
<path d="M96.4253 76.1943C96.2193 76.2001 96.0527 76.3746 96.0527 76.5846C96.0527 76.7989 96.2258 76.975 96.4359 76.975C96.6463 76.975 96.8191 76.7989 96.8191 76.5846C96.8191 76.5826 96.8191 76.5805 96.8191 76.5783C96.8024 76.3681 96.6321 76.202 96.4253 76.1943Z" fill="white"/>
<path d="M76.3831 97.4057C76.1775 97.4206 76.0188 97.6021 76.0277 97.8118C76.0277 98.0173 76.1937 98.1865 76.3953 98.1865C76.4001 98.1865 76.4048 98.1865 76.4095 98.1862C76.6158 98.1867 76.787 98.0168 76.7922 97.8068C76.7922 97.8049 76.7922 97.8027 76.7922 97.8008C76.7922 97.5838 76.617 97.4053 76.4041 97.4053C76.397 97.4053 76.3902 97.4053 76.3831 97.4057Z" fill="white"/>
<path d="M48.5241 89.6108C48.3256 89.6254 48.1699 89.7961 48.1699 89.9991C48.1699 90.2127 48.3423 90.3884 48.5519 90.3884C48.5701 90.3884 48.5884 90.387 48.6066 90.3843C48.8002 90.3639 48.9493 90.1957 48.9493 89.9974C48.9493 89.7838 48.7769 89.6084 48.5675 89.6084C48.5531 89.6084 48.5385 89.6091 48.5241 89.6108Z" fill="white"/>
<path d="M65.6754 98.2334C65.4691 98.2461 65.303 98.4158 65.291 98.626C65.291 98.6282 65.291 98.6301 65.291 98.6323C65.291 98.8509 65.4677 99.0311 65.6825 99.0311C65.8973 99.0311 66.0739 98.8509 66.0739 98.6323C66.0739 98.4134 65.8973 98.2334 65.6825 98.2334C65.6801 98.2334 65.6777 98.2334 65.6754 98.2334Z" fill="white"/>
<path d="M87.7202 91.1245C87.5125 91.114 87.3311 91.2748 87.3125 91.486C87.3125 91.4886 87.3125 91.4915 87.3125 91.4941C87.3125 91.718 87.4931 91.9021 87.7129 91.9021C87.7141 91.9021 87.7152 91.9021 87.7164 91.9021C87.9241 91.899 88.0935 91.7238 88.0933 91.5121C88.0935 91.5083 88.0935 91.5042 88.0935 91.5004C88.0935 91.2942 87.927 91.1245 87.7247 91.1245C87.7232 91.1245 87.7216 91.1245 87.7202 91.1245Z" fill="white"/>
<path d="M67.8574 98.3818C67.6407 98.3828 67.4629 98.565 67.4629 98.7858C67.4629 98.793 67.4629 98.8004 67.4634 98.8076C67.4756 99.0128 67.6447 99.175 67.8466 99.175C68.0571 99.175 68.2305 98.9984 68.2305 98.7838V98.7836C68.2246 98.5734 68.063 98.3994 67.8574 98.3818Z" fill="white"/>
<path d="M86.0149 92.5391C85.8079 92.5494 85.643 92.7255 85.6426 92.9367C85.6555 93.1465 85.8249 93.314 86.0312 93.3207C86.2382 93.3188 86.4106 93.1518 86.4231 92.9413C86.4233 92.9367 86.4233 92.9319 86.4233 92.9274C86.4233 92.7138 86.2509 92.5381 86.0413 92.5381C86.0326 92.5381 86.0236 92.5383 86.0149 92.5391Z" fill="white"/>
<path d="M53.604 93.812C53.5972 93.8115 53.5904 93.8115 53.5835 93.8115C53.3687 93.8115 53.1919 93.9915 53.1919 94.2106C53.1919 94.2126 53.1919 94.2145 53.1919 94.2164C53.1916 94.2222 53.1914 94.2279 53.1914 94.2337C53.1914 94.4394 53.3574 94.6086 53.5593 94.6086C53.5598 94.6086 53.5602 94.6086 53.5607 94.6086C53.5656 94.6088 53.5704 94.6088 53.5753 94.6088C53.7781 94.6088 53.9462 94.442 53.9519 94.2354C53.9604 94.0251 53.8087 93.8403 53.604 93.812Z" fill="white"/>
<path d="M50.0889 48.9435C50.295 48.9255 50.4551 48.7477 50.4551 48.537C50.4532 48.3227 50.2797 48.1475 50.0693 48.1475C50.0566 48.1475 50.0439 48.1482 50.0312 48.1494C49.8388 48.1664 49.6895 48.3323 49.6895 48.5291C49.6895 48.543 49.6902 48.5567 49.6916 48.5703C49.7076 48.7803 49.8821 48.9442 50.0889 48.9435Z" fill="white"/>
<path d="M40.6954 68.2479C40.7079 68.2491 40.7206 68.2499 40.7331 68.2499C40.9406 68.2499 41.1123 68.0773 41.1149 67.8659C41.1222 67.6568 40.9609 67.4783 40.756 67.4684C40.5365 67.4557 40.3452 67.6288 40.332 67.8524C40.3337 68.0593 40.4929 68.2326 40.6954 68.2479Z" fill="white"/>
<path d="M84.2308 46.1945C84.4324 46.1883 84.5949 46.0176 84.5949 45.8122C84.5949 45.8057 84.5947 45.7995 84.5944 45.7932C84.589 45.5813 84.415 45.4104 84.2068 45.4133C84.2035 45.4133 84.1999 45.4131 84.1966 45.4131C83.9858 45.4131 83.8125 45.59 83.8125 45.8045C83.8125 46.0193 83.9858 46.196 84.1966 46.196C84.2082 46.196 84.2195 46.1955 84.2308 46.1945Z" fill="white"/>
<path d="M96.8333 74.0146C96.627 74.0242 96.46 74.1951 96.4516 74.4056C96.4421 74.617 96.6044 74.7992 96.8119 74.8098C96.8216 74.8105 96.8315 74.811 96.8411 74.811C97.0479 74.811 97.2179 74.6377 97.2179 74.427C97.2179 74.42 97.2179 74.4128 97.2175 74.4058C97.2052 74.1961 97.0392 74.0271 96.8333 74.0146Z" fill="white"/>
<path d="M80.4985 95.914C80.4896 95.9133 80.4804 95.9131 80.4715 95.9131C80.2633 95.9131 80.0918 96.0878 80.0918 96.3C80.0918 96.3062 80.092 96.3124 80.0923 96.3187C80.1005 96.5306 80.2757 96.6993 80.4837 96.696C80.4861 96.696 80.4886 96.696 80.491 96.696C80.7015 96.696 80.8749 96.5196 80.8749 96.305C80.8749 96.0933 80.7063 95.9181 80.4985 95.914Z" fill="white"/>
<path d="M41.776 76.6021C41.7692 76.3936 41.5989 76.2256 41.394 76.2256C41.1858 76.2256 41.0141 76.3989 41.0117 76.6108C41.0138 76.8352 41.1954 77.0188 41.4159 77.0188C41.4187 77.0188 41.4213 77.0188 41.4241 77.0188C41.6314 76.9998 41.7885 76.8138 41.776 76.6021Z" fill="white"/>
<path d="M41.1201 72.2658C41.1154 72.0542 40.9437 71.8826 40.736 71.8818C40.5172 71.8866 40.3398 72.0714 40.3398 72.2944C40.3398 72.2982 40.3401 72.3021 40.3401 72.3059C40.3646 72.5157 40.5473 72.6719 40.7544 72.6602C40.9557 72.659 41.1206 72.49 41.1206 72.2848C41.1206 72.2786 41.1204 72.2721 41.1201 72.2658Z" fill="white"/>
<path d="M41.9949 78.3674C41.9854 78.3667 41.9758 78.3662 41.9664 78.3662C41.7586 78.3662 41.5879 78.5404 41.5879 78.7519C41.5879 78.7586 41.5881 78.7651 41.5884 78.7718C41.5902 78.9792 41.7582 79.1486 41.9617 79.1486C41.9661 79.1486 41.9708 79.1486 41.9753 79.1484C42.1835 79.152 42.358 78.9813 42.3632 78.7692C42.3677 78.557 42.2028 78.3773 41.9949 78.3674Z" fill="white"/>
<path d="M45.792 86.218C45.586 86.2343 45.4268 86.4155 45.4338 86.626C45.4362 86.8341 45.6046 87.0038 45.8088 87.0038C45.8116 87.0038 45.8142 87.0038 45.817 87.0038C45.821 87.004 45.825 87.004 45.829 87.004C46.0311 87.004 46.1971 86.8346 46.1971 86.6289C46.1971 86.6275 46.1971 86.6263 46.1971 86.6248C46.1971 86.6217 46.1971 86.6183 46.1971 86.6152C46.1971 86.3971 46.0212 86.2178 45.8071 86.2178C45.8022 86.2178 45.797 86.2178 45.792 86.218Z" fill="white"/>
<path d="M42.7215 80.4223C42.7107 80.4214 42.6996 80.4209 42.6886 80.4209C42.4933 80.4209 42.3311 80.5815 42.3254 80.7804C42.3245 80.791 42.3242 80.8013 42.3242 80.8119C42.3242 81.0257 42.4969 81.2016 42.7067 81.2016C42.9166 81.2016 43.0892 81.0257 43.0892 80.8119C43.0892 80.6038 42.9255 80.4305 42.7215 80.4223Z" fill="white"/>
<path d="M94.2263 57.5437C94.4319 57.5242 94.5918 57.3476 94.5942 57.1371C94.5796 56.9259 94.4032 56.7613 94.1955 56.7649C94.191 56.7647 94.1863 56.7646 94.1818 56.7646C93.9792 56.7646 93.8125 56.9346 93.8125 57.141C93.8125 57.1422 93.8125 57.1431 93.8125 57.1443C93.8125 57.1472 93.8125 57.1503 93.8125 57.1532C93.8125 57.368 93.9858 57.5449 94.1969 57.5449C94.2065 57.5449 94.2164 57.5444 94.2263 57.5437Z" fill="white"/>
<path d="M41.9369 61.7534C41.9449 61.7539 41.9527 61.7542 41.9607 61.7542C42.1644 61.7542 42.3323 61.5833 42.3323 61.3754C42.3323 61.3649 42.3319 61.3541 42.3309 61.3435C42.3213 61.1335 42.1449 60.9682 41.9388 60.9758C41.7344 60.9761 41.5664 61.1474 41.5664 61.3558C41.5664 61.3584 41.5664 61.3608 41.5664 61.3634C41.5641 61.5737 41.7306 61.7491 41.9369 61.7534Z" fill="white"/>
<path d="M44.6155 84.3826C44.4151 84.3826 44.25 84.5508 44.25 84.755C44.25 84.7606 44.2502 84.7661 44.2505 84.7716C44.2507 84.9837 44.4222 85.158 44.6304 85.158C44.8388 85.158 45.0103 84.9833 45.0103 84.7709C45.0103 84.762 45.01 84.7529 45.0093 84.7438C45.0008 84.5426 44.8362 84.3818 44.6386 84.3818C44.6311 84.3818 44.6233 84.3821 44.6155 84.3826Z" fill="white"/>
<path d="M59.3867 96.7568C59.3846 96.7568 59.3827 96.7568 59.3806 96.7568C59.1717 96.7568 59 96.9318 59 97.1447C59 97.156 59.0005 97.1672 59.0014 97.1785C59.0101 97.378 59.1736 97.5373 59.3693 97.5373C59.3792 97.5373 59.3888 97.5368 59.3985 97.5361C59.6046 97.5289 59.7692 97.3518 59.765 97.1416C59.7607 96.9318 59.5926 96.7607 59.3867 96.7568Z" fill="white"/>
<path d="M72.1095 41.7805C72.3142 41.762 72.4713 41.5818 72.4651 41.3725C72.4552 41.163 72.2819 40.9964 72.0761 40.9991C72.0749 40.9991 72.0737 40.9991 72.0725 40.9991C71.8676 40.9991 71.6992 41.1707 71.6992 41.3795C71.6992 41.3802 71.6992 41.3809 71.6992 41.3816C71.6992 41.3838 71.6992 41.3859 71.6992 41.3878C71.6992 41.6036 71.8735 41.7812 72.0852 41.7812C72.0932 41.7812 72.1015 41.781 72.1095 41.7805Z" fill="white"/>
<path d="M72.1818 98.2336C71.9755 98.2264 71.7986 98.3901 71.7859 98.6001C71.7854 98.6085 71.7852 98.6167 71.7852 98.6251C71.7852 98.8399 71.9585 99.0167 72.1695 99.0167C72.3803 99.0167 72.5539 98.8399 72.5539 98.6251C72.5539 98.4151 72.3879 98.2403 72.1818 98.2336Z" fill="white"/>
</g>
<defs>
<filter id="filter0_dd_1_2029" x="0.078125" y="0.0146484" width="137.658" height="140" filterUnits="userSpaceOnUse" color-interpolation-filters="sRGB">
<feFlood flood-opacity="0" result="BackgroundImageFix"/>
<feColorMatrix in="SourceAlpha" type="matrix" values="0 0 0 0 0 0 0 0 0 0 0 0 0 0 0 0 0 0 127 0" result="hardAlpha"/>
<feOffset/>
<feGaussianBlur stdDeviation="5"/>
<feComposite in2="hardAlpha" operator="out"/>
<feColorMatrix type="matrix" values="0 0 0 0 0.8423 0 0 0 0 0.585 0 0 0 0 1 0 0 0 0.5 0"/>
<feBlend mode="normal" in2="BackgroundImageFix" result="effect1_dropShadow_1_2029"/>
<feColorMatrix in="SourceAlpha" type="matrix" values="0 0 0 0 0 0 0 0 0 0 0 0 0 0 0 0 0 0 127 0" result="hardAlpha"/>
<feOffset/>
<feGaussianBlur stdDeviation="5"/>
<feComposite in2="hardAlpha" operator="out"/>
<feColorMatrix type="matrix" values="0 0 0 0 0.8423 0 0 0 0 0.585 0 0 0 0 1 0 0 0 1 0"/>
<feBlend mode="normal" in2="effect1_dropShadow_1_2029" result="effect2_dropShadow_1_2029"/>
<feBlend mode="normal" in="SourceGraphic" in2="effect2_dropShadow_1_2029" result="shape"/>
</filter>
</defs>
</svg>
