<svg width="230" height="43" viewBox="0 0 230 43" fill="none" xmlns="http://www.w3.org/2000/svg">
<g clip-path="url(#clip0_11_30)" filter="url(#filter0_d_11_30)">
<path d="M63.2002 15.2222L58.1702 15.2222L57.19 18.6L53.2051 18.6L58.3726 3.22366L63.1573 3.22366L68.3257 18.6L64.1699 18.6L63.2002 15.2222ZM58.9271 12.4085L62.4328 12.4085L60.7281 6.48412L60.6423 6.48412L58.9271 12.4085Z" fill="white"/>
<path d="M73.419 2.45412L69.647 2.45412L69.647 18.5978L73.419 18.5978L73.419 2.45412Z" fill="white"/>
<path d="M82.8297 6.56985C84.3285 6.56985 85.4936 7.10245 86.3249 8.16766C87.1633 9.23375 87.582 10.7291 87.582 12.6536C87.582 14.5791 87.1668 16.0744 86.3354 17.1405C85.5111 18.2127 84.3566 18.7488 82.8717 18.7488C81.0891 18.7488 79.8776 18.0209 79.2381 16.565L79.1636 16.565L79.1636 22.202L75.3916 22.202L75.3916 6.72928L79.1426 6.72928L79.1426 8.80714L79.2171 8.80714C79.5158 8.10372 79.981 7.55709 80.6134 7.1664C81.245 6.7687 81.9844 6.56985 82.8297 6.56985ZM81.4334 15.7766C82.1298 15.7766 82.6843 15.4954 83.096 14.9347C83.5077 14.3662 83.7136 13.6058 83.7136 12.6536C83.7136 11.7093 83.5077 10.956 83.096 10.3953C82.6764 9.8268 82.1228 9.5421 81.4334 9.5421C80.7448 9.5421 80.1903 9.8268 79.7716 10.3953C79.359 10.963 79.1531 11.7198 79.1531 12.665C79.1531 13.6164 79.359 14.3732 79.7716 14.9347C80.1833 15.4954 80.7378 15.7766 81.4334 15.7766Z" fill="white"/>
<path d="M89.1707 2.45412L92.8682 2.45412L92.8682 8.96452L92.9427 8.96452C93.5822 7.3448 94.8567 6.53538 96.7682 6.53538C98.0892 6.53538 99.1264 6.92958 99.8797 7.71798C100.633 8.51338 101.009 9.611 101.009 11.0108L101.009 18.5978L97.2263 18.5978L97.2263 11.8203C97.2263 11.1387 97.0415 10.5991 96.6718 10.2006C96.296 9.80986 95.7844 9.61451 95.1379 9.61451C94.4915 9.61451 93.9659 9.82825 93.5603 10.254C93.1486 10.6876 92.9427 11.2421 92.9427 11.9166L92.9427 18.5978L89.1707 18.5978L89.1707 2.45412Z" fill="white"/>
<path d="M107.723 16.1285C108.349 16.1285 108.874 15.9612 109.3 15.6274C109.748 15.2867 109.972 14.8495 109.972 14.3169L109.972 13.4961L107.787 13.6459C106.679 13.7239 106.125 14.1426 106.125 14.903C106.125 15.2796 106.271 15.5784 106.562 15.7982C106.846 16.0181 107.234 16.1285 107.723 16.1285ZM106.392 18.7495C105.262 18.7495 104.317 18.4157 103.557 17.7482C102.776 17.0737 102.385 16.21 102.385 15.1588C102.385 12.9355 103.986 11.724 107.191 11.5251L109.972 11.3543L109.972 10.6728C109.972 10.1971 109.812 9.82745 109.492 9.56465C109.18 9.30886 108.754 9.18096 108.214 9.18096C107.709 9.18096 107.29 9.30185 106.956 9.54275C106.636 9.77752 106.448 10.0832 106.392 10.4599L102.992 10.4599C103.042 9.25893 103.554 8.29621 104.527 7.57176C105.507 6.8403 106.797 6.47414 108.394 6.47414C109.972 6.47414 111.243 6.8403 112.209 7.57176C113.176 8.31022 113.659 9.27645 113.659 10.4704L113.659 18.59L109.993 18.59L109.993 16.8853L109.919 16.8853C109.606 17.4679 109.12 17.926 108.458 18.2598C107.82 18.5865 107.13 18.7495 106.392 18.7495Z" fill="white"/>
<path d="M119.958 6.73775L123.624 6.73775L123.624 9.01797L123.699 9.01797C123.933 8.2576 124.356 7.65404 124.966 7.20641C125.578 6.75877 126.285 6.53539 127.087 6.53539C127.968 6.53539 128.696 6.75176 129.272 7.18538C129.847 7.62601 130.22 8.24709 130.391 9.05038L130.465 9.05038C130.7 8.28301 131.147 7.67156 131.808 7.21692C132.475 6.76228 133.25 6.53539 134.131 6.53539C135.289 6.53539 136.226 6.90506 136.944 7.64353C137.661 8.38988 138.02 9.36311 138.02 10.5632L138.02 18.5979L134.248 18.5979L134.248 11.5224C134.248 10.2435 133.68 9.60401 132.543 9.60401C132.01 9.60401 131.587 9.78183 131.275 10.1366C130.956 10.4923 130.795 10.9679 130.795 11.5645L130.795 18.5979L127.194 18.5979L127.194 11.469C127.194 10.8724 127.044 10.4108 126.746 10.0841C126.455 9.76431 126.036 9.60401 125.488 9.60401C124.963 9.60401 124.537 9.78534 124.21 10.148C123.891 10.5098 123.73 10.9898 123.73 11.5864L123.73 18.5979L119.958 18.5979L119.958 6.73775Z" fill="white"/>
<path d="M144.734 16.1285C145.36 16.1285 145.885 15.9612 146.312 15.6274C146.76 15.2867 146.983 14.8495 146.983 14.3169L146.983 13.4961L144.798 13.6459C143.69 13.7239 143.137 14.1426 143.137 14.903C143.137 15.2796 143.282 15.5784 143.573 15.7982C143.857 16.0181 144.245 16.1285 144.734 16.1285ZM143.403 18.7495C142.273 18.7495 141.328 18.4157 140.568 17.7482C139.787 17.0737 139.396 16.21 139.396 15.1588C139.396 12.9355 140.998 11.724 144.202 11.5251L146.983 11.3543L146.983 10.6728C146.983 10.1971 146.824 9.82745 146.504 9.56465C146.191 9.30886 145.765 9.18096 145.225 9.18096C144.72 9.18096 144.302 9.30185 143.967 9.54275C143.648 9.77752 143.46 10.0832 143.403 10.4599L140.003 10.4599C140.053 9.25893 140.565 8.29621 141.538 7.57176C142.518 6.8403 143.808 6.47414 145.406 6.47414C146.983 6.47414 148.255 6.8403 149.221 7.57176C150.187 8.31022 150.67 9.27645 150.67 10.4704L150.67 18.59L147.004 18.59L147.004 16.8853L146.93 16.8853C146.617 17.4679 146.131 17.926 145.47 18.2598C144.831 18.5865 144.141 18.7495 143.403 18.7495Z" fill="white"/>
<path d="M152.557 6.72928L156.223 6.72928L156.223 8.95606L156.297 8.95606C156.73 7.36525 157.665 6.56985 159.1 6.56985C159.44 6.56985 159.76 6.6189 160.059 6.71877L160.059 9.9582C159.732 9.81629 159.327 9.74533 158.844 9.74533C158.034 9.74533 157.413 9.96521 156.979 10.4058C156.546 10.8535 156.329 11.4929 156.329 12.3234L156.329 18.5894L152.557 18.5894L152.557 6.72928Z" fill="white"/>
<path d="M168.65 6.73774L172.87 6.73774L168.608 11.8203L173.115 18.5978L168.767 18.5978L165.816 14.0795L165.092 14.9213L165.092 18.5978L161.319 18.5978L161.319 2.45412L165.092 2.45412L165.092 11.2771L165.166 11.2771L168.65 6.73774Z" fill="white"/>
<path d="M178.847 9.15994C178.244 9.15994 177.736 9.3623 177.323 9.76701C176.911 10.1717 176.68 10.6903 176.631 11.3228L181.042 11.3228C181.006 10.6693 180.79 10.1437 180.392 9.74598C179.987 9.35529 179.472 9.15994 178.847 9.15994ZM184.538 14.86C184.353 16.0751 183.756 17.0413 182.747 17.7587C181.731 18.4832 180.456 18.8458 178.922 18.8458C177.046 18.8458 175.575 18.3027 174.51 17.2156C173.444 16.1285 172.911 14.6297 172.911 12.7182C172.911 10.8077 173.44 9.28696 174.5 8.1578C175.558 7.03565 176.989 6.47414 178.794 6.47414C180.562 6.47414 181.976 7.01025 183.034 8.08334C184.086 9.16344 184.612 10.6053 184.612 12.4099L184.612 13.4856L176.588 13.4856L176.588 13.7204C176.588 14.4448 176.808 15.0309 177.248 15.4785C177.689 15.9331 178.265 16.1609 178.975 16.1609C180.104 16.1609 180.822 15.7273 181.127 14.86L184.538 14.86Z" fill="white"/>
<path d="M190.847 4.12338L190.847 6.74436L192.988 6.74436L192.988 9.53616L190.847 9.53616L190.847 14.5977C190.847 15.429 191.305 15.8442 192.221 15.8442C192.484 15.8442 192.74 15.8267 192.988 15.7916L192.988 18.4766C192.555 18.5764 192.001 18.6255 191.326 18.6255C189.806 18.6255 188.715 18.3697 188.055 17.8581C187.401 17.3544 187.075 16.5196 187.075 15.3545L187.075 9.53616L185.486 9.53616L185.486 6.74436L187.075 6.74436L187.075 4.12338L190.847 4.12338Z" fill="white"/>
<path d="M194.642 6.73938L198.425 6.73938L198.425 18.5995L194.642 18.5995L194.642 6.73938ZM196.528 5.75914C195.988 5.75914 195.533 5.58131 195.164 5.22653C194.781 4.87088 194.589 4.42675 194.589 3.89414C194.589 3.36854 194.781 2.92441 195.164 2.56263C195.533 2.20697 195.988 2.02914 196.528 2.02914C197.068 2.02914 197.526 2.20697 197.903 2.56263C198.286 2.92441 198.478 3.36854 198.478 3.89414C198.478 4.42675 198.286 4.87088 197.903 5.22653C197.533 5.58131 197.075 5.75914 196.528 5.75914Z" fill="white"/>
<path d="M200.345 6.73775L204.01 6.73775L204.01 8.96453L204.085 8.96453C204.739 7.34481 206 6.53539 207.868 6.53539C209.189 6.53539 210.226 6.92959 210.98 7.71799C211.725 8.50638 212.098 9.6005 212.098 11.0003L212.098 18.5979L208.316 18.5979L208.316 11.8098C208.316 11.1212 208.138 10.5842 207.782 10.2006C207.421 9.80987 206.916 9.61452 206.27 9.61452C205.63 9.61452 205.112 9.82826 204.714 10.254C204.316 10.6806 204.117 11.2307 204.117 11.9061L204.117 18.5979L200.345 18.5979L200.345 6.73775Z" fill="white"/>
<path d="M219.707 15.6697C220.418 15.6697 220.975 15.4069 221.379 14.8813C221.792 14.3487 221.998 13.6058 221.998 12.6536C221.998 11.7023 221.792 10.9454 221.379 10.3839C220.968 9.8233 220.41 9.5421 219.707 9.5421C219.004 9.5421 218.449 9.81979 218.045 10.3734C217.633 10.9349 217.426 11.6918 217.426 12.6431C217.426 13.6023 217.628 14.3487 218.034 14.8813C218.439 15.4069 218.997 15.6697 219.707 15.6697ZM219.643 22.9904C217.967 22.9904 216.606 22.6636 215.562 22.0102C214.503 21.3497 213.949 20.4684 213.899 19.3673L217.565 19.3673C217.643 19.701 217.884 19.9708 218.29 20.1767C218.688 20.3764 219.16 20.4754 219.707 20.4754C220.396 20.4754 220.947 20.3125 221.358 19.9857C221.77 19.6511 221.977 19.2 221.977 18.6323L221.977 16.3836L221.902 16.3836C221.661 17.0161 221.217 17.5207 220.57 17.8965C219.917 18.2802 219.156 18.472 218.29 18.472C216.862 18.472 215.721 17.9569 214.869 16.9267C214.003 15.8756 213.569 14.4407 213.569 12.6221C213.569 10.7396 213.995 9.26178 214.848 8.18956C215.7 7.10946 216.869 6.56985 218.354 6.56985C219.192 6.56985 219.934 6.77571 220.581 7.18742C221.206 7.59213 221.657 8.13262 221.934 8.80714L221.998 8.80714L221.998 6.72928L225.759 6.72928L225.759 18.3546C225.759 19.7615 225.201 20.8836 224.086 21.722C222.971 22.5673 221.49 22.9904 219.643 22.9904Z" fill="white"/>
<path d="M58.2754 28.4871L54.9378 28.4871L54.0566 30.9215L53.2585 30.9215L56.2317 22.9753L56.9807 22.9753L59.9494 30.9215L59.1566 30.9215L58.2754 28.4871ZM55.1638 27.838L58.0494 27.838L56.6232 23.9056L56.59 23.9056L55.1638 27.838Z" fill="white"/>
<path d="M65.4731 30.9273L64.5095 30.9273L61.602 28.0251L61.5687 28.0251L61.5687 30.9273L60.8469 30.9273L60.8469 24.9968L61.5687 24.9968L61.5687 27.6669L61.602 27.6669L64.4376 24.9968L65.3627 24.9968L62.3396 27.8158L65.4731 30.9273Z" fill="white"/>
<path d="M70.5388 25.6074L68.5127 25.6074L68.5127 30.9273L67.7917 30.9273L67.7917 25.6074L65.7646 25.6074L65.7646 24.9968L70.5388 24.9968L70.5388 25.6074Z" fill="white"/>
<path d="M71.9277 32.992C71.8024 32.992 71.6815 32.978 71.5641 32.9482L71.5641 32.3263C71.6736 32.3517 71.7937 32.3648 71.9215 32.3648C72.1896 32.3648 72.4086 32.286 72.5768 32.1274C72.7424 31.9733 72.8913 31.7096 73.0236 31.3347L73.1558 30.9659L70.9255 24.9968L71.7069 24.9968L73.5246 30.1897L73.5413 30.1897L75.3633 24.9968L76.1342 24.9968L73.8216 31.2138C73.5649 31.9111 73.3039 32.3815 73.0393 32.6232C72.7791 32.8694 72.4086 32.992 71.9277 32.992Z" fill="white"/>
<path d="M78.7844 30.3597C79.317 30.3597 79.7611 30.2003 80.1176 29.8806C80.4768 29.5652 80.6573 29.1719 80.6573 28.7024L80.6573 28.0471L78.9219 28.168C77.9049 28.2346 77.3968 28.6069 77.3968 29.2858C77.3968 29.6055 77.5256 29.8639 77.7822 30.0628C78.0389 30.2608 78.3735 30.3597 78.7844 30.3597ZM78.6416 30.9983C78.0503 30.9983 77.5711 30.8407 77.2041 30.5253C76.837 30.2056 76.6531 29.7912 76.6531 29.2805C76.6531 28.2486 77.3802 27.6818 78.8343 27.5793L80.6573 27.4576L80.6573 26.9512C80.6573 26.5176 80.5267 26.1821 80.2657 25.9438C80.002 25.7047 79.6306 25.5856 79.1532 25.5856C78.7388 25.5856 78.3954 25.6845 78.1239 25.8825C77.8523 26.0849 77.6832 26.3617 77.6167 26.7147L76.9176 26.7147C76.9474 26.1926 77.1725 25.7669 77.5948 25.4366C78.0135 25.1029 78.5347 24.9356 79.1593 24.9356C79.8382 24.9356 80.3796 25.1116 80.7834 25.4647C81.1837 25.8168 81.3835 26.2925 81.3835 26.8908L81.3835 30.9326L80.6897 30.9326L80.6897 29.7982L80.673 29.7982C80.5118 30.1583 80.2473 30.4482 79.8802 30.6681C79.5097 30.8888 79.0962 30.9983 78.6416 30.9983Z" fill="white"/>
<path d="M84.0816 28.3773C84.015 29.2296 83.8792 29.8533 83.6743 30.2502C83.4202 30.7346 83.0295 30.9773 82.5013 30.9773C82.3795 30.9773 82.2692 30.9589 82.1702 30.9221L82.1702 30.2554C82.2586 30.2852 82.3576 30.2992 82.468 30.2992C82.758 30.2992 82.9778 30.1197 83.1285 29.7596C83.2573 29.4513 83.3449 28.9817 83.3931 28.3501C83.4772 27.4689 83.5542 26.3511 83.6243 24.9968L87.4183 24.9968L87.4183 30.9273L86.6973 30.9273L86.6973 25.6074L84.2796 25.6074C84.2209 26.7383 84.1552 27.6616 84.0816 28.3773Z" fill="white"/>
<path d="M89.5547 27.6283L89.5547 30.3159L90.838 30.3159C91.2716 30.3159 91.6185 30.1932 91.8787 29.9471C92.1362 29.7044 92.2641 29.3803 92.2641 28.9721C92.2641 28.5613 92.1345 28.2345 91.8735 27.9919C91.6168 27.7501 91.2716 27.6283 90.838 27.6283L89.5547 27.6283ZM88.8337 24.9968L89.5547 24.9968L89.5547 27.0116L90.838 27.0116C91.4915 27.0116 92.0127 27.1886 92.4017 27.5407C92.795 27.8964 92.9912 28.3738 92.9912 28.9721C92.9912 29.5669 92.795 30.0426 92.4017 30.3991C92.0127 30.7512 91.4915 30.9273 90.838 30.9273L88.8337 30.9273L88.8337 24.9968Z" fill="white"/>
<path d="M98.1347 28.1522L94.8085 28.1522L94.8085 30.9273L94.0867 30.9273L94.0867 24.9968L94.8085 24.9968L94.8085 27.5407L98.1347 27.5407L98.1347 24.9968L98.8556 24.9968L98.8556 30.9273L98.1347 30.9273L98.1347 28.1522Z" fill="white"/>
<path d="M105.316 24.9968L106.038 24.9968L106.038 30.9273L105.316 30.9273L105.316 24.9968ZM100.998 27.6283L100.998 30.3159L102.282 30.3159C102.715 30.3159 103.062 30.1932 103.322 29.9471C103.58 29.7044 103.708 29.3803 103.708 28.9721C103.708 28.5613 103.578 28.2345 103.317 27.9919C103.06 27.7501 102.715 27.6283 102.282 27.6283L100.998 27.6283ZM100.277 24.9968L100.998 24.9968L100.998 27.0116L102.282 27.0116C102.935 27.0116 103.456 27.1886 103.846 27.5407C104.239 27.8964 104.435 28.3738 104.435 28.9721C104.435 29.5669 104.239 30.0426 103.846 30.3991C103.456 30.7512 102.935 30.9273 102.282 30.9273L100.277 30.9273L100.277 24.9968Z" fill="white"/>
<path d="M108.835 22.5236C108.835 22.8538 108.934 23.1219 109.133 23.3277C109.334 23.5362 109.602 23.6413 109.936 23.6413C110.271 23.6413 110.537 23.5362 110.735 23.3277C110.933 23.1219 111.032 22.8538 111.032 22.5236L111.588 22.5236C111.588 22.9966 111.438 23.3768 111.137 23.6632C110.832 23.9532 110.432 24.0986 109.936 24.0986C109.437 24.0986 109.037 23.9532 108.736 23.6632C108.431 23.3768 108.279 22.9966 108.279 22.5236L108.835 22.5236ZM107.458 30.9489L107.458 25.0184L108.18 25.0184L108.18 29.8145L108.213 29.8145L111.583 25.0184L112.304 25.0184L112.304 30.9489L111.583 30.9489L111.583 26.1528L111.545 26.1528L108.18 30.9489L107.458 30.9489Z" fill="white"/>
<path d="M116.22 30.9273L116.22 24.9968L117.084 24.9968L119.43 29.9637L119.463 29.9637L121.803 24.9968L122.641 24.9968L122.641 30.9273L121.914 30.9273L121.914 26.3178L121.88 26.3178L119.711 30.8117L119.144 30.8117L116.974 26.3178L116.941 26.3178L116.941 30.9273L116.22 30.9273Z" fill="white"/>
<path d="M125.951 30.3597C126.482 30.3597 126.927 30.2003 127.283 29.8806C127.643 29.5652 127.823 29.1719 127.823 28.7024L127.823 28.0471L126.088 28.168C125.071 28.2346 124.563 28.6069 124.563 29.2858C124.563 29.6055 124.691 29.8639 124.948 30.0628C125.205 30.2608 125.539 30.3597 125.951 30.3597ZM125.807 30.9983C125.217 30.9983 124.737 30.8407 124.37 30.5253C124.002 30.2056 123.819 29.7912 123.819 29.2805C123.819 28.2486 124.546 27.6818 126 27.5793L127.823 27.4576L127.823 26.9512C127.823 26.5176 127.692 26.1821 127.432 25.9438C127.167 25.7047 126.797 25.5856 126.319 25.5856C125.904 25.5856 125.562 25.6845 125.289 25.8825C125.018 26.0849 124.849 26.3617 124.783 26.7147L124.084 26.7147C124.113 26.1926 124.339 25.7669 124.761 25.4366C125.18 25.1029 125.701 24.9356 126.325 24.9356C127.004 24.9356 127.546 25.1116 127.95 25.4647C128.35 25.8168 128.55 26.2925 128.55 26.8908L128.55 30.9326L127.856 30.9326L127.856 29.7982L127.839 29.7982C127.678 30.1583 127.414 30.4482 127.047 30.6681C126.675 30.8888 126.262 30.9983 125.807 30.9983Z" fill="white"/>
<path d="M132.659 24.9356C133.408 24.9356 134.016 25.215 134.487 25.773C134.953 26.331 135.186 27.0616 135.186 27.9648C135.186 28.8679 134.953 29.6002 134.487 30.1618C134.024 30.7198 133.418 30.9983 132.669 30.9983C132.203 30.9983 131.788 30.8792 131.424 30.6409C131.072 30.4132 130.812 30.1031 130.643 29.7097L130.626 29.7097L130.626 32.8765L129.899 32.8765L129.899 25.0021L130.588 25.0021L130.588 26.2294L130.604 26.2294C130.762 25.8484 131.027 25.5374 131.397 25.2991C131.776 25.0565 132.196 24.9356 132.659 24.9356ZM132.532 30.3431C133.104 30.3431 133.567 30.1267 133.919 29.694C134.268 29.2569 134.442 28.6822 134.442 27.97C134.442 27.2578 134.268 26.6814 133.919 26.2408C133.567 25.8037 133.104 25.5856 132.532 25.5856C131.967 25.5856 131.507 25.8054 131.154 26.2461C130.799 26.6902 130.621 27.2631 130.621 27.9648C130.621 28.6691 130.799 29.242 131.154 29.6826C131.507 30.1232 131.967 30.3431 132.532 30.3431Z" fill="white"/>
<path d="M140.934 30.9273L139.971 30.9273L137.063 28.0251L137.03 28.0251L137.03 30.9273L136.308 30.9273L136.308 24.9968L137.03 24.9968L137.03 27.6669L137.063 27.6669L139.899 24.9968L140.824 24.9968L137.801 27.8158L140.934 30.9273Z" fill="white"/>
<path d="M143.975 25.5803C143.443 25.5803 143.006 25.7616 142.665 26.1252C142.32 26.4852 142.13 26.96 142.097 27.5513L145.787 27.5513C145.78 26.96 145.611 26.4852 145.28 26.1252C144.947 25.7616 144.511 25.5803 143.975 25.5803ZM146.47 29.2534C146.382 29.7632 146.113 30.1802 145.666 30.5034C145.215 30.8337 144.669 30.9983 144.03 30.9983C143.208 30.9983 142.554 30.7285 142.07 30.1889C141.585 29.6458 141.343 28.91 141.343 27.9805C141.343 27.0599 141.584 26.3214 142.065 25.7669C142.549 25.2133 143.189 24.9356 143.987 24.9356C144.764 24.9356 145.387 25.1966 145.853 25.7178C146.316 26.2426 146.547 26.946 146.547 27.8264L146.547 28.1461L142.097 28.1461L142.097 28.1846C142.097 28.853 142.276 29.3813 142.631 29.7711C142.984 30.16 143.456 30.3545 144.047 30.3545C144.484 30.3545 144.856 30.252 145.165 30.0461C145.466 29.8482 145.661 29.5836 145.748 29.2534L146.47 29.2534Z" fill="white"/>
<path d="M151.843 25.6074L149.817 25.6074L149.817 30.9273L149.095 30.9273L149.095 25.6074L147.069 25.6074L147.069 24.9968L151.843 24.9968L151.843 25.6074Z" fill="white"/>
<path d="M152.775 30.9273L152.775 24.9968L153.496 24.9968L153.496 29.7929L153.529 29.7929L156.899 24.9968L157.621 24.9968L157.621 30.9273L156.899 30.9273L156.899 26.1312L156.861 26.1312L153.496 30.9273L152.775 30.9273Z" fill="white"/>
<path d="M163.085 28.1522L159.758 28.1522L159.758 30.9273L159.037 30.9273L159.037 24.9968L159.758 24.9968L159.758 27.5407L163.085 27.5407L163.085 24.9968L163.806 24.9968L163.806 30.9273L163.085 30.9273L163.085 28.1522Z" fill="white"/>
<path d="M165.947 25.6074L165.947 30.9273L165.226 30.9273L165.226 24.9968L168.987 24.9968L168.987 25.6074L165.947 25.6074Z" fill="white"/>
<path d="M172.552 30.9273L172.552 24.9968L173.272 24.9968L173.272 29.7929L173.306 29.7929L176.676 24.9968L177.398 24.9968L177.398 30.9273L176.676 30.9273L176.676 26.1312L176.637 26.1312L173.272 30.9273L172.552 30.9273Z" fill="white"/>
<path d="M185.304 25.6074L182.033 25.6074L182.033 30.9273L181.311 30.9273L181.311 24.9968L186.025 24.9968L186.025 30.9273L185.304 30.9273L185.304 25.6074Z" fill="white"/>
<path d="M190.206 24.9356C190.955 24.9356 191.564 25.215 192.034 25.773C192.5 26.331 192.733 27.0616 192.733 27.9648C192.733 28.8679 192.5 29.6002 192.034 30.1618C191.572 30.7198 190.966 30.9983 190.217 30.9983C189.751 30.9983 189.335 30.8792 188.972 30.6409C188.62 30.4132 188.36 30.1031 188.19 29.7097L188.174 29.7097L188.174 32.8765L187.447 32.8765L187.447 25.0021L188.135 25.0021L188.135 26.2294L188.152 26.2294C188.31 25.8484 188.574 25.5374 188.945 25.2991C189.323 25.0565 189.743 24.9356 190.206 24.9356ZM190.079 30.3431C190.652 30.3431 191.115 30.1267 191.467 29.694C191.815 29.2569 191.99 28.6822 191.99 27.97C191.99 27.2578 191.815 26.6814 191.467 26.2408C191.115 25.8037 190.652 25.5856 190.079 25.5856C189.514 25.5856 189.055 25.8054 188.702 26.2461C188.346 26.6902 188.169 27.2631 188.169 27.9648C188.169 28.6691 188.346 29.242 188.702 29.6826C189.055 30.1232 189.514 30.3431 190.079 30.3431Z" fill="white"/>
<path d="M196.252 30.9983C195.437 30.9983 194.785 30.7233 194.297 30.1723C193.805 29.6257 193.559 28.8898 193.559 27.9648C193.559 27.0432 193.805 26.3065 194.297 25.7564C194.785 25.2089 195.437 24.9356 196.252 24.9356C197.071 24.9356 197.724 25.2089 198.212 25.7564C198.705 26.3065 198.95 27.0432 198.95 27.9648C198.95 28.8863 198.705 29.6221 198.212 30.1723C197.724 30.7233 197.071 30.9983 196.252 30.9983ZM196.252 30.3431C196.858 30.3431 197.335 30.132 197.683 29.7097C198.033 29.284 198.207 28.7024 198.207 27.9648C198.207 27.2263 198.033 26.6446 197.683 26.2189C197.335 25.7967 196.858 25.5856 196.252 25.5856C195.65 25.5856 195.174 25.7967 194.826 26.2189C194.477 26.6446 194.303 27.2263 194.303 27.9648C194.303 28.7024 194.477 29.284 194.826 29.7097C195.174 30.132 195.65 30.3431 196.252 30.3431Z" fill="white"/>
<path d="M204.128 25.6074L201.551 25.6074C201.496 26.6577 201.427 27.581 201.347 28.3773C201.27 29.3067 201.092 29.9418 200.812 30.2826L200.812 30.3159L204.128 30.3159L204.128 25.6074ZM199.469 32.4971L199.469 30.3159L199.948 30.3159C200.345 30.0592 200.585 29.404 200.669 28.3501C200.779 26.9915 200.856 25.8737 200.901 24.9968L204.854 24.9968L204.854 30.3159L205.812 30.3159L205.812 32.4971L205.13 32.4971L205.13 30.9273L200.152 30.9273L200.152 32.4971L199.469 32.4971Z" fill="white"/>
<path d="M208.598 30.3597C209.131 30.3597 209.575 30.2003 209.931 29.8806C210.291 29.5652 210.47 29.1719 210.47 28.7024L210.47 28.0471L208.736 28.168C207.719 28.2346 207.211 28.6069 207.211 29.2858C207.211 29.6055 207.34 29.8639 207.596 30.0628C207.853 30.2608 208.187 30.3597 208.598 30.3597ZM208.456 30.9983C207.864 30.9983 207.385 30.8407 207.018 30.5253C206.651 30.2056 206.467 29.7912 206.467 29.2805C206.467 28.2486 207.194 27.6818 208.648 27.5793L210.47 27.4576L210.47 26.9512C210.47 26.5176 210.341 26.1821 210.08 25.9438C209.815 25.7047 209.445 25.5856 208.967 25.5856C208.553 25.5856 208.209 25.6845 207.938 25.8825C207.666 26.0849 207.497 26.3617 207.431 26.7147L206.732 26.7147C206.761 26.1926 206.987 25.7669 207.409 25.4366C207.827 25.1029 208.349 24.9356 208.973 24.9356C209.652 24.9356 210.194 25.1116 210.597 25.4647C210.998 25.8168 211.197 26.2925 211.197 26.8908L211.197 30.9326L210.504 30.9326L210.504 29.7982L210.487 29.7982C210.326 30.1583 210.061 30.4482 209.694 30.6681C209.324 30.8888 208.91 30.9983 208.456 30.9983Z" fill="white"/>
<path d="M219.982 30.9273L219.023 30.9273L216.364 28.0251L216.33 28.0251L216.33 30.9273L215.609 30.9273L215.609 28.0251L215.576 28.0251L212.917 30.9273L211.98 30.9273L214.849 27.8324L212.069 24.9968L212.988 24.9968L215.576 27.6669L215.609 27.6669L215.609 24.9968L216.33 24.9968L216.33 27.6669L216.364 27.6669L218.952 24.9968L219.866 24.9968L217.096 27.8158L219.982 30.9273Z" fill="white"/>
<path d="M220.836 30.9273L220.836 24.9968L221.558 24.9968L221.558 29.7929L221.591 29.7929L224.961 24.9968L225.683 24.9968L225.683 30.9273L224.961 30.9273L224.961 26.1312L224.922 26.1312L221.558 30.9273L220.836 30.9273Z" fill="white"/>
<path fill-rule="evenodd" clip-rule="evenodd" d="M32.137 20.8712L32.2228 20.5277L34.7131 28.1701L34.4125 28.5995L34.4125 28.5566L34.3267 28.7283C27.1565 38.2599 11.9575 36.4137 6.333 26.7103C0.365026 16.4059 6.41887 2.79552 18.0972 0.348228C19.2994 0.133553 20.5445 0.00474545 21.7896 0.00474545C27.3282 0.00474543 33.1674 2.40911 36.1299 7.26077L38.4484 0.949318L45.6615 0.949318L40.2088 16.1054L43.7294 25.8946C44.1158 26.8821 45.1892 27.4402 46.1767 27.1826L46.4773 27.0968L48.4094 33.58L46.0909 34.181C42.7849 34.9968 39.393 33.3223 38.1479 30.1452C37.8473 29.587 37.5468 28.9859 37.3321 28.3419L36.0441 24.95L35.9582 24.8212L35.9582 24.7783L33.0815 16.0625C31.4929 11.2537 28.5304 8.93524 26.169 7.99067C24.8809 7.38957 23.4212 7.08903 21.8755 7.08903C15.9075 7.08903 11.0988 11.8548 11.0988 17.694C11.0988 23.5332 15.9075 28.2989 21.8755 28.2989C26.6842 28.2989 30.763 25.1647 32.137 20.8712Z" fill="url(#paint0_linear_11_30)"/>
</g>
<defs>
<filter id="filter0_d_11_30" x="0" y="0" width="229.667" height="43" filterUnits="userSpaceOnUse" color-interpolation-filters="sRGB">
<feFlood flood-opacity="0" result="BackgroundImageFix"/>
<feColorMatrix in="SourceAlpha" type="matrix" values="0 0 0 0 0 0 0 0 0 0 0 0 0 0 0 0 0 0 127 0" result="hardAlpha"/>
<feOffset dy="4"/>
<feGaussianBlur stdDeviation="2"/>
<feComposite in2="hardAlpha" operator="out"/>
<feColorMatrix type="matrix" values="0 0 0 0 0 0 0 0 0 0 0 0 0 0 0 0 0 0 0.25 0"/>
<feBlend mode="normal" in2="BackgroundImageFix" result="effect1_dropShadow_11_30"/>
<feBlend mode="normal" in="SourceGraphic" in2="effect1_dropShadow_11_30" result="shape"/>
</filter>
<linearGradient id="paint0_linear_11_30" x1="4.05744" y1="0.494207" x2="46.9925" y2="0.494207" gradientUnits="userSpaceOnUse">
<stop stop-color="#7A5FFF"/>
<stop offset="1" stop-color="#00E824"/>
</linearGradient>
<clipPath id="clip0_11_30">
<rect width="221.667" height="35" fill="white" transform="translate(4)"/>
</clipPath>
</defs>
</svg>
